<?xml version="1.0" encoding="UTF-8" standalone="no"?>
<!-- Created with Inkscape (http://www.inkscape.org/) -->

<svg
   version="1.1"
   id="svg1"
   width="793.33331"
   height="793.33331"
   viewBox="0 0 793.33331 793.33331"
   sodipodi:docname="mismatch_freq_weight.svg"
   inkscape:version="1.4.2 (1:1.4.2+202505120737+ebf0e940d0)"
   xmlns:inkscape="http://www.inkscape.org/namespaces/inkscape"
   xmlns:sodipodi="http://sodipodi.sourceforge.net/DTD/sodipodi-0.dtd"
   xmlns="http://www.w3.org/2000/svg"
   xmlns:svg="http://www.w3.org/2000/svg">
  <defs
     id="defs1">
    <clipPath
       clipPathUnits="userSpaceOnUse"
       id="clipPath53">
      <path
         d="M 79.2,64.8 H 580.88 V 580.88 H 79.2 Z"
         id="path53" />
    </clipPath>
    <clipPath
       clipPathUnits="userSpaceOnUse"
       id="clipPath55">
      <path
         d="M 79.2,64.8 H 580.88 V 580.88 H 79.2 Z"
         id="path55" />
    </clipPath>
    <clipPath
       clipPathUnits="userSpaceOnUse"
       id="clipPath57">
      <path
         d="M 79.2,64.8 H 580.88 V 580.88 H 79.2 Z"
         id="path57" />
    </clipPath>
    <clipPath
       clipPathUnits="userSpaceOnUse"
       id="clipPath59">
      <path
         d="M 79.2,64.8 H 580.88 V 580.88 H 79.2 Z"
         id="path59" />
    </clipPath>
    <clipPath
       clipPathUnits="userSpaceOnUse"
       id="clipPath61">
      <path
         d="M 79.2,64.8 H 580.88 V 580.88 H 79.2 Z"
         id="path61" />
    </clipPath>
    <clipPath
       clipPathUnits="userSpaceOnUse"
       id="clipPath63">
      <path
         d="M 79.2,64.8 H 580.88 V 580.88 H 79.2 Z"
         id="path63" />
    </clipPath>
    <clipPath
       clipPathUnits="userSpaceOnUse"
       id="clipPath65">
      <path
         d="M 79.2,64.8 H 580.88 V 580.88 H 79.2 Z"
         id="path65" />
    </clipPath>
    <clipPath
       clipPathUnits="userSpaceOnUse"
       id="clipPath67">
      <path
         d="M 79.2,64.8 H 580.88 V 580.88 H 79.2 Z"
         id="path67" />
    </clipPath>
    <clipPath
       clipPathUnits="userSpaceOnUse"
       id="clipPath69">
      <path
         d="M 79.2,64.8 H 580.88 V 580.88 H 79.2 Z"
         id="path69" />
    </clipPath>
    <clipPath
       clipPathUnits="userSpaceOnUse"
       id="clipPath71">
      <path
         d="M 79.2,64.8 H 580.88 V 580.88 H 79.2 Z"
         id="path71" />
    </clipPath>
    <clipPath
       clipPathUnits="userSpaceOnUse"
       id="clipPath73">
      <path
         d="M 79.2,64.8 H 580.88 V 580.88 H 79.2 Z"
         id="path73" />
    </clipPath>
    <clipPath
       clipPathUnits="userSpaceOnUse"
       id="clipPath75">
      <path
         d="M 79.2,64.8 H 580.88 V 580.88 H 79.2 Z"
         id="path75" />
    </clipPath>
    <clipPath
       clipPathUnits="userSpaceOnUse"
       id="clipPath77">
      <path
         d="M 79.2,64.8 H 580.88 V 580.88 H 79.2 Z"
         id="path77" />
    </clipPath>
    <clipPath
       clipPathUnits="userSpaceOnUse"
       id="clipPath79">
      <path
         d="M 79.2,64.8 H 580.88 V 580.88 H 79.2 Z"
         id="path79" />
    </clipPath>
    <clipPath
       clipPathUnits="userSpaceOnUse"
       id="clipPath81">
      <path
         d="M 79.2,64.8 H 580.88 V 580.88 H 79.2 Z"
         id="path81" />
    </clipPath>
    <clipPath
       clipPathUnits="userSpaceOnUse"
       id="clipPath83">
      <path
         d="M 79.2,64.8 H 580.88 V 580.88 H 79.2 Z"
         id="path83" />
    </clipPath>
    <clipPath
       clipPathUnits="userSpaceOnUse"
       id="clipPath85">
      <path
         d="M 79.2,64.8 H 580.88 V 580.88 H 79.2 Z"
         id="path85" />
    </clipPath>
    <clipPath
       clipPathUnits="userSpaceOnUse"
       id="clipPath87">
      <path
         d="M 79.2,64.8 H 580.88 V 580.88 H 79.2 Z"
         id="path87" />
    </clipPath>
    <clipPath
       clipPathUnits="userSpaceOnUse"
       id="clipPath89">
      <path
         d="M 79.2,64.8 H 580.88 V 580.88 H 79.2 Z"
         id="path89" />
    </clipPath>
    <clipPath
       clipPathUnits="userSpaceOnUse"
       id="clipPath91">
      <path
         d="M 79.2,64.8 H 580.88 V 580.88 H 79.2 Z"
         id="path91" />
    </clipPath>
    <clipPath
       clipPathUnits="userSpaceOnUse"
       id="clipPath93">
      <path
         d="M 79.2,64.8 H 580.88 V 580.88 H 79.2 Z"
         id="path93" />
    </clipPath>
    <clipPath
       clipPathUnits="userSpaceOnUse"
       id="clipPath95">
      <path
         d="M 79.2,64.8 H 580.88 V 580.88 H 79.2 Z"
         id="path95" />
    </clipPath>
    <clipPath
       clipPathUnits="userSpaceOnUse"
       id="clipPath97">
      <path
         d="M 79.2,64.8 H 580.88 V 580.88 H 79.2 Z"
         id="path97" />
    </clipPath>
    <clipPath
       clipPathUnits="userSpaceOnUse"
       id="clipPath99">
      <path
         d="M 79.2,64.8 H 580.88 V 580.88 H 79.2 Z"
         id="path99" />
    </clipPath>
    <clipPath
       clipPathUnits="userSpaceOnUse"
       id="clipPath101">
      <path
         d="M 79.2,64.8 H 580.88 V 580.88 H 79.2 Z"
         id="path101" />
    </clipPath>
    <clipPath
       clipPathUnits="userSpaceOnUse"
       id="clipPath103">
      <path
         d="M 79.2,64.8 H 580.88 V 580.88 H 79.2 Z"
         id="path103" />
    </clipPath>
    <clipPath
       clipPathUnits="userSpaceOnUse"
       id="clipPath105">
      <path
         d="M 79.2,64.8 H 580.88 V 580.88 H 79.2 Z"
         transform="matrix(1,0,0,-1,-278.71,550.49001)"
         id="path105" />
    </clipPath>
    <clipPath
       clipPathUnits="userSpaceOnUse"
       id="clipPath107">
      <path
         d="M 79.2,64.8 H 580.88 V 580.88 H 79.2 Z"
         transform="matrix(1,0,0,-1,-278.71,528.89001)"
         id="path107" />
    </clipPath>
  </defs>
  <sodipodi:namedview
     id="namedview1"
     pagecolor="#ffffff"
     bordercolor="#000000"
     borderopacity="0.25"
     inkscape:showpageshadow="2"
     inkscape:pageopacity="0.0"
     inkscape:pagecheckerboard="0"
     inkscape:deskcolor="#d1d1d1"
     inkscape:zoom="1.1987395"
     inkscape:cx="378.73116"
     inkscape:cy="397.08377"
     inkscape:window-width="1890"
     inkscape:window-height="1172"
     inkscape:window-x="0"
     inkscape:window-y="0"
     inkscape:window-maximized="1"
     inkscape:current-layer="g1"
     inkscape:export-bgcolor="#ffffffff">
    <inkscape:page
       x="0"
       y="0"
       inkscape:label="1"
       id="page1"
       width="793.33331"
       height="793.33331"
       margin="0"
       bleed="0"
       inkscape:export-filename="mismatch_freq_weight.png"
       inkscape:export-xdpi="150"
       inkscape:export-ydpi="150" />
  </sodipodi:namedview>
  <g
     id="g1"
     inkscape:groupmode="layer"
     inkscape:label="1">
    <path
       id="path1"
       d="M 97.78,64.8 V 57.6"
       style="fill:none;stroke:#bbbbbb;stroke-width:0.75;stroke-linecap:round;stroke-linejoin:round;stroke-miterlimit:10;stroke-dasharray:none;stroke-opacity:0.502"
       transform="matrix(1.3333333,0,0,-1.3333333,0,793.33333)" />
    <path
       id="path2"
       d="M 144.23,64.8 V 57.6"
       style="fill:none;stroke:#bbbbbb;stroke-width:0.75;stroke-linecap:round;stroke-linejoin:round;stroke-miterlimit:10;stroke-dasharray:none;stroke-opacity:0.502"
       transform="matrix(1.3333333,0,0,-1.3333333,0,793.33333)" />
    <path
       id="path3"
       d="M 190.68,64.8 V 57.6"
       style="fill:none;stroke:#bbbbbb;stroke-width:0.75;stroke-linecap:round;stroke-linejoin:round;stroke-miterlimit:10;stroke-dasharray:none;stroke-opacity:0.502"
       transform="matrix(1.3333333,0,0,-1.3333333,0,793.33333)" />
    <path
       id="path4"
       d="M 237.13,64.8 V 57.6"
       style="fill:none;stroke:#bbbbbb;stroke-width:0.75;stroke-linecap:round;stroke-linejoin:round;stroke-miterlimit:10;stroke-dasharray:none;stroke-opacity:0.502"
       transform="matrix(1.3333333,0,0,-1.3333333,0,793.33333)" />
    <path
       id="path5"
       d="M 283.59,64.8 V 57.6"
       style="fill:none;stroke:#bbbbbb;stroke-width:0.75;stroke-linecap:round;stroke-linejoin:round;stroke-miterlimit:10;stroke-dasharray:none;stroke-opacity:0.502"
       transform="matrix(1.3333333,0,0,-1.3333333,0,793.33333)" />
    <path
       id="path6"
       d="M 330.04,64.8 V 57.6"
       style="fill:none;stroke:#bbbbbb;stroke-width:0.75;stroke-linecap:round;stroke-linejoin:round;stroke-miterlimit:10;stroke-dasharray:none;stroke-opacity:0.502"
       transform="matrix(1.3333333,0,0,-1.3333333,0,793.33333)" />
    <path
       id="path7"
       d="M 376.49,64.8 V 57.6"
       style="fill:none;stroke:#bbbbbb;stroke-width:0.75;stroke-linecap:round;stroke-linejoin:round;stroke-miterlimit:10;stroke-dasharray:none;stroke-opacity:0.502"
       transform="matrix(1.3333333,0,0,-1.3333333,0,793.33333)" />
    <path
       id="path8"
       d="M 422.94,64.8 V 57.6"
       style="fill:none;stroke:#bbbbbb;stroke-width:0.75;stroke-linecap:round;stroke-linejoin:round;stroke-miterlimit:10;stroke-dasharray:none;stroke-opacity:0.502"
       transform="matrix(1.3333333,0,0,-1.3333333,0,793.33333)" />
    <path
       id="path9"
       d="M 469.39,64.8 V 57.6"
       style="fill:none;stroke:#bbbbbb;stroke-width:0.75;stroke-linecap:round;stroke-linejoin:round;stroke-miterlimit:10;stroke-dasharray:none;stroke-opacity:0.502"
       transform="matrix(1.3333333,0,0,-1.3333333,0,793.33333)" />
    <path
       id="path10"
       d="M 515.84,64.8 V 57.6"
       style="fill:none;stroke:#bbbbbb;stroke-width:0.75;stroke-linecap:round;stroke-linejoin:round;stroke-miterlimit:10;stroke-dasharray:none;stroke-opacity:0.502"
       transform="matrix(1.3333333,0,0,-1.3333333,0,793.33333)" />
    <path
       id="path11"
       d="M 562.3,64.8 V 57.6"
       style="fill:none;stroke:#bbbbbb;stroke-width:0.75;stroke-linecap:round;stroke-linejoin:round;stroke-miterlimit:10;stroke-dasharray:none;stroke-opacity:0.502"
       transform="matrix(1.3333333,0,0,-1.3333333,0,793.33333)" />
    <path
       id="path12"
       d="m 4.735625,-12.399297 c -2.7890625,0 -4.20703125,2.214844 -4.20703125,6.5625001 0,2.109375 0.375,3.9257813 1.00781245,4.8046875 0.6210938,0.89062503 1.6289063,1.39453128 2.7539063,1.39453128 2.71875,0 4.078125,-2.32031248 4.078125,-6.97265628 0,-3.9257816 -1.171875,-5.7890626 -3.6328125,-5.7890626 z M 4.4075,-11.778203 c 1.7460937,0 2.4492187,1.769531 2.4492187,6.0937499 0,2.2148437 -0.1992187,3.5390625 -0.6796875,4.40625 -0.3632812,0.66796873 -0.9140625,1.00781248 -1.6523437,1.00781248 -1.7695313,0 -2.484375,-1.81640628 -2.484375,-6.21093748 0,-3.8203129 0.65625,-5.2968749 2.3671875,-5.2968749 z m 6.820312,9.7851561 c -0.539062,0 -1.019531,0.5039063 -1.019531,1.04296878 0,0.55078125 0.480469,1.04296875 1.007813,1.04296875 0.574218,0 1.078125,-0.4921875 1.078125,-1.04296875 0,-0.53906248 -0.503907,-1.04296878 -1.066407,-1.04296878 z m 7.007813,-10.4062501 c -2.789063,0 -4.207031,2.214844 -4.207031,6.5625001 0,2.109375 0.375,3.9257813 1.007812,4.8046875 0.621094,0.89062503 1.628906,1.39453128 2.753906,1.39453128 2.71875,0 4.078125,-2.32031248 4.078125,-6.97265628 0,-3.9257816 -1.171875,-5.7890626 -3.632812,-5.7890626 z m -0.328125,0.621094 c 1.746094,0 2.449219,1.769531 2.449219,6.0937499 0,2.2148437 -0.199219,3.5390625 -0.679688,4.40625 -0.363281,0.66796873 -0.914062,1.00781248 -1.652344,1.00781248 -1.769531,0 -2.484375,-1.81640628 -2.484375,-6.21093748 0,-3.8203129 0.65625,-5.2968749 2.367188,-5.2968749 z m 0,0"
       style="fill:#000000;fill-opacity:1;fill-rule:nonzero;stroke:none"
       aria-label="0.0"
       transform="matrix(1.3333333,0,0,1.3333333,115.37333,741.49333)" />
    <path
       id="path13"
       d="m 4.7358203,-12.399297 c -2.7890625,0 -4.20703124,2.214844 -4.20703124,6.5625001 0,2.109375 0.375,3.9257813 1.00781254,4.8046875 0.6210937,0.89062503 1.6289062,1.39453128 2.7539062,1.39453128 2.71875,0 4.078125,-2.32031248 4.078125,-6.97265628 0,-3.9257816 -1.171875,-5.7890626 -3.6328125,-5.7890626 z m -0.328125,0.621094 c 1.7460938,0 2.4492188,1.769531 2.4492188,6.0937499 0,2.2148437 -0.1992188,3.5390625 -0.6796875,4.40625 -0.3632813,0.66796873 -0.9140625,1.00781248 -1.6523438,1.00781248 -1.7695312,0 -2.484375,-1.81640628 -2.484375,-6.21093748 0,-3.8203129 0.65625,-5.2968749 2.3671875,-5.2968749 z m 6.8203127,9.7851561 c -0.539063,0 -1.019531,0.5039063 -1.019531,1.04296878 0,0.55078125 0.480468,1.04296875 1.007812,1.04296875 0.574219,0 1.078125,-0.4921875 1.078125,-1.04296875 0,-0.53906248 -0.503906,-1.04296878 -1.066406,-1.04296878 z m 3.480469,-7.9921875 h 0.175781 l 2.320312,-1.0546876 c 0.02344,-0.01172 0.03516,-0.01172 0.05859,-0.01172 0.105469,0 0.140625,0.164063 0.140625,0.597657 v 8.7304684 c 0,0.92578123 -0.199219,1.12499998 -1.171875,1.18359373 l -1.007812,0.0585938 v 0.5390625 c 1.570312,-0.03515625 2.578125,-0.058593755 2.976562,-0.058593755 0.234375,0 0.644531,0 1.242188,0.023437505 0.246093,0.01171875 0.738281,0.01171875 1.582031,0.03515625 v -0.5390625 l -0.9375,-0.0585938 c -0.972656,-0.0585938 -1.171875,-0.2578125 -1.171875,-1.18359373 V -12.399297 l -0.246094,-0.09375 c -1.207031,0.632813 -2.414062,1.136719 -4.089844,1.722656 z m 0,0"
       style="fill:#000000;fill-opacity:1;fill-rule:nonzero;stroke:none"
       aria-label="0.1"
       transform="matrix(1.3333333,0,0,1.3333333,177.30667,741.49333)" />
    <path
       id="path14"
       d="m 4.7330859,-12.399297 c -2.7890625,0 -4.20703121,2.214844 -4.20703121,6.5625001 0,2.109375 0.375,3.9257813 1.00781251,4.8046875 0.6210937,0.89062503 1.6289062,1.39453128 2.7539062,1.39453128 2.71875,0 4.078125,-2.32031248 4.078125,-6.97265628 0,-3.9257816 -1.171875,-5.7890626 -3.6328125,-5.7890626 z m -0.328125,0.621094 c 1.7460938,0 2.4492188,1.769531 2.4492188,6.0937499 0,2.2148437 -0.1992188,3.5390625 -0.6796875,4.40625 -0.3632813,0.66796873 -0.9140625,1.00781248 -1.6523438,1.00781248 -1.7695312,0 -2.484375,-1.81640628 -2.484375,-6.21093748 0,-3.8203129 0.65625,-5.2968749 2.3671875,-5.2968749 z m 6.8203121,9.7851561 c -0.539062,0 -1.019531,0.5039063 -1.019531,1.04296878 0,0.55078125 0.480469,1.04296875 1.007813,1.04296875 0.574218,0 1.078125,-0.4921875 1.078125,-1.04296875 0,-0.53906248 -0.503907,-1.04296878 -1.066407,-1.04296878 z m 2.566407,1.58203128 v 0.46875 c 2.191406,-0.03515625 3.222656,-0.058593755 4.007812,-0.058593755 0.773438,0 1.839844,0.023437505 4.125,0.058593755 -0.03516,-0.36328125 -0.03516,-0.5390625 -0.03516,-0.8203125 0,-0.24609378 0,-0.42187498 0.03516,-0.80859378 -2.074219,0.09375 -2.894531,0.1171875 -6.234375,0.1875 l 3.28125,-3.4804687 c 1.746094,-1.8515625 2.285156,-2.8359375 2.285156,-4.1953125 0,-2.0624999 -1.40625,-3.3398439 -3.691406,-3.3398439 -1.289062,0 -2.15625,0.351563 -3.058594,1.253906 l -0.304687,2.4492191 h 0.515625 l 0.234375,-0.8320312 c 0.292969,-1.0429689 0.9375,-1.4882809 2.144531,-1.4882809 1.570313,0 2.542969,0.949218 2.542969,2.4960934 0,1.3710937 -0.761719,2.6835937 -2.789063,4.8515625 z m 0,0"
       style="fill:#000000;fill-opacity:1;fill-rule:nonzero;stroke:none"
       aria-label="0.2"
       transform="matrix(1.3333333,0,0,1.3333333,239.24,741.49333)" />
    <path
       id="path15"
       d="m 4.7332813,-12.399297 c -2.7890625,0 -4.2070313,2.214844 -4.2070313,6.5625001 0,2.109375 0.375,3.9257813 1.0078125,4.8046875 0.6210938,0.89062503 1.6289063,1.39453128 2.7539063,1.39453128 2.71875,0 4.078125,-2.32031248 4.078125,-6.97265628 0,-3.9257816 -1.171875,-5.7890626 -3.6328125,-5.7890626 z m -0.328125,0.621094 c 1.7460937,0 2.4492187,1.769531 2.4492187,6.0937499 0,2.2148437 -0.1992187,3.5390625 -0.6796875,4.40625 -0.3632812,0.66796873 -0.9140625,1.00781248 -1.6523437,1.00781248 -1.7695313,0 -2.484375,-1.81640628 -2.484375,-6.21093748 0,-3.8203129 0.65625,-5.2968749 2.3671875,-5.2968749 z m 6.8203127,9.7851561 c -0.539063,0 -1.019531,0.5039063 -1.019531,1.04296878 0,0.55078125 0.480468,1.04296875 1.007812,1.04296875 0.574219,0 1.078125,-0.4921875 1.078125,-1.04296875 0,-0.53906248 -0.503906,-1.04296878 -1.066406,-1.04296878 z m 3.046875,-6.9726562 h 0.5625 l 0.316406,-1.0078125 c 0.199219,-0.6093754 1.335938,-1.2187504 2.285156,-1.2187504 1.160157,0 2.109375,0.925782 2.109375,2.0976566 0,1.3359375 -1.066406,2.4726563 -2.34375,2.4726563 -0.117187,0 -0.316406,-0.023437 -0.574218,-0.035156 -0.03516,0 -0.140625,0 -0.269532,-0.023437 l -0.210937,0.9609375 0.128906,0.1054688 c 0.679688,-0.3046875 1.007813,-0.3984375 1.511719,-0.3984375 1.488281,0 2.355469,0.9492187 2.355469,2.5898437 0,1.8398438 -1.101563,3.04687503 -2.777344,3.04687503 -0.84375,0 -1.582031,-0.26953125 -2.097656,-0.77343753 -0.457032,-0.421875 -0.667969,-0.8085937 -1.007813,-1.78125 l -0.492187,0.1757813 c 0.375,1.1015625 0.527343,1.7460937 0.632812,2.64843748 0.949219,0.31640625 1.722656,0.46875 2.414063,0.46875 1.441406,0 3.09375,-0.80859375 4.078125,-2.01562498 0.621093,-0.7382813 0.925781,-1.5351563 0.925781,-2.3789063 0,-0.8789062 -0.363281,-1.6171875 -1.007813,-2.0742187 -0.457031,-0.3164063 -0.890625,-0.46875 -1.769531,-0.6210938 1.441406,-1.125 1.980469,-1.9335937 1.980469,-3.0117187 0,-1.6054682 -1.335938,-2.6601562 -3.328125,-2.6601562 -1.230469,0 -2.050781,0.339844 -2.894531,1.207031 z m 0,0"
       style="fill:#000000;fill-opacity:1;fill-rule:nonzero;stroke:none"
       aria-label="0.3"
       transform="matrix(1.3333333,0,0,1.3333333,301.17333,741.49333)" />
    <path
       id="path16"
       d="m 4.7351953,-12.399297 c -2.7890625,0 -4.20703124,2.214844 -4.20703124,6.5625001 0,2.109375 0.375,3.9257813 1.00781254,4.8046875 0.6210937,0.89062503 1.6289062,1.39453128 2.7539062,1.39453128 2.71875,0 4.078125,-2.32031248 4.078125,-6.97265628 0,-3.9257816 -1.171875,-5.7890626 -3.6328125,-5.7890626 z m -0.328125,0.621094 c 1.7460938,0 2.4492188,1.769531 2.4492188,6.0937499 0,2.2148437 -0.1992188,3.5390625 -0.6796875,4.40625 -0.3632813,0.66796873 -0.9140625,1.00781248 -1.6523438,1.00781248 -1.7695312,0 -2.484375,-1.81640628 -2.484375,-6.21093748 0,-3.8203129 0.65625,-5.2968749 2.3671875,-5.2968749 z m 6.8203127,9.7851561 c -0.539063,0 -1.019531,0.5039063 -1.019531,1.04296878 0,0.55078125 0.480468,1.04296875 1.007812,1.04296875 0.574219,0 1.078125,-0.4921875 1.078125,-1.04296875 0,-0.53906248 -0.503906,-1.04296878 -1.066406,-1.04296878 z m 7.3125,-1.265625 v 1.3476563 c -0.03516,1.11328123 -0.175781,1.31249998 -1.078125,1.37109373 l -1.113281,0.0585938 v 0.5390625 c 1.617187,-0.03515625 2.320312,-0.058593755 2.824218,-0.058593755 0.539063,0 1.253907,0.023437505 2.824219,0.058593755 v -0.5390625 l -0.867187,-0.0585938 c -0.902344,-0.0703125 -1.042969,-0.2578125 -1.078125,-1.37109373 v -1.3476563 c 1.066406,0 1.441406,0.023437 1.945312,0.070312 v -1.2773437 c -0.5625,0.058594 -0.902344,0.058594 -1.453125,0.058594 h -0.492187 v -2.5078125 c 0,-3.3632809 0.03516,-5.0156249 0.128906,-5.4843749 l -0.222656,-0.09375 -1.324219,0.480469 -5.097656,8.3437497 0.199218,0.4101562 z m 0,-1.1484375 h -3.867188 l 3.867188,-6.3398436 z m 0,0"
       style="fill:#000000;fill-opacity:1;fill-rule:nonzero;stroke:none"
       aria-label="0.4"
       transform="matrix(1.3333333,0,0,1.3333333,363.12,741.49333)" />
    <path
       id="path17"
       d="m 4.7353906,-12.399297 c -2.7890625,0 -4.20703122,2.214844 -4.20703122,6.5625001 0,2.109375 0.375,3.9257813 1.00781252,4.8046875 0.6210937,0.89062503 1.6289062,1.39453128 2.7539062,1.39453128 2.71875,0 4.078125,-2.32031248 4.078125,-6.97265628 0,-3.9257816 -1.171875,-5.7890626 -3.6328125,-5.7890626 z m -0.328125,0.621094 c 1.7460938,0 2.4492188,1.769531 2.4492188,6.0937499 0,2.2148437 -0.1992188,3.5390625 -0.6796875,4.40625 -0.3632813,0.66796873 -0.9140625,1.00781248 -1.6523438,1.00781248 -1.7695312,0 -2.484375,-1.81640628 -2.484375,-6.21093748 0,-3.8203129 0.65625,-5.2968749 2.3671875,-5.2968749 z m 6.8203124,9.7851561 c -0.539062,0 -1.019531,0.5039063 -1.019531,1.04296878 0,0.55078125 0.480469,1.04296875 1.007812,1.04296875 0.574219,0 1.078125,-0.4921875 1.078125,-1.04296875 0,-0.53906248 -0.503906,-1.04296878 -1.066406,-1.04296878 z m 4.558594,-8.8945311 c 2.285156,0.07031 3.28125,0.08203 5.496094,0.08203 l 0.08203,-0.08203 c -0.03516,-0.328125 -0.03516,-0.46875 -0.03516,-0.726563 0,-0.234375 0,-0.375 0.03516,-0.703125 l -0.08203,-0.08203 c -1.324219,0.07031 -2.109375,0.08203 -3.140625,0.08203 -1.019532,0 -1.816407,-0.01172 -3.128907,-0.08203 l -0.09375,0.08203 c 0.02344,1.101563 0.03516,1.933594 0.03516,2.5078129 0,1.5703125 -0.04687,3.2578125 -0.105469,4.0078125 l 0.363281,0.1171875 c 0.84375,-0.8671875 1.335938,-1.1015625 2.214844,-1.1015625 1.722656,0 2.800781,1.21875 2.800781,3.1640625 0,2.0039062 -1.148437,3.17578123 -3.105469,3.17578123 -0.996093,0 -1.875,-0.328125 -2.132812,-0.79687503 l -0.820313,-1.4765625 -0.433593,0.2578125 c 0.410156,1.0195313 0.632812,1.59375003 0.878906,2.39062503 0.503906,0.28125 1.207031,0.43359375 2.003906,0.43359375 1.207031,0 2.484375,-0.52734375 3.492188,-1.39453128 1.078125,-0.9492187 1.652343,-2.1914062 1.652343,-3.5273437 0,-2.0273438 -1.453125,-3.46875 -3.503906,-3.46875 -0.867187,0 -1.523437,0.2109375 -2.636719,0.9023437 z m 0,0"
       style="fill:#000000;fill-opacity:1;fill-rule:nonzero;stroke:none"
       aria-label="0.5"
       transform="matrix(1.3333333,0,0,1.3333333,425.05333,741.49333)" />
    <path
       id="path18"
       d="m 4.7355859,-12.399297 c -2.7890625,0 -4.20703121,2.214844 -4.20703121,6.5625001 0,2.109375 0.375,3.9257813 1.00781251,4.8046875 0.6210937,0.89062503 1.6289062,1.39453128 2.7539062,1.39453128 2.71875,0 4.078125,-2.32031248 4.078125,-6.97265628 0,-3.9257816 -1.171875,-5.7890626 -3.6328125,-5.7890626 z m -0.328125,0.621094 c 1.7460938,0 2.4492188,1.769531 2.4492188,6.0937499 0,2.2148437 -0.1992188,3.5390625 -0.6796875,4.40625 -0.3632813,0.66796873 -0.9140625,1.00781248 -1.6523438,1.00781248 -1.7695312,0 -2.484375,-1.81640628 -2.484375,-6.21093748 0,-3.8203129 0.65625,-5.2968749 2.3671875,-5.2968749 z m 6.8203121,9.7851561 c -0.539062,0 -1.019531,0.5039063 -1.019531,1.04296878 0,0.55078125 0.480469,1.04296875 1.007813,1.04296875 0.574218,0 1.078125,-0.4921875 1.078125,-1.04296875 0,-0.53906248 -0.503907,-1.04296878 -1.066407,-1.04296878 z m 4.628907,-3.9609375 c 0.375,-3.2578125 1.886718,-5.0273436 5.132812,-5.9999996 v -0.140625 l -0.667969,-0.304688 c -1.722656,0.574219 -2.460937,0.9375 -3.386718,1.722656 -1.851563,1.5703129 -2.859375,3.7617191 -2.859375,6.2343754 0,2.9882812 1.417968,4.80468748 3.761718,4.80468748 2.34375,0 4.089844,-1.83984378 4.089844,-4.30078128 0,-2.0742187 -1.242187,-3.421875 -3.152344,-3.421875 -0.902343,0 -1.441406,0.234375 -2.496093,1.078125 z m 2.214843,-0.328125 c 1.40625,0 2.308594,1.171875 2.308594,2.9648438 0,1.875 -0.902344,3.08203123 -2.308594,3.08203123 -1.546875,0 -2.355468,-1.30078123 -2.355468,-3.72656253 0,-0.6445312 0.07031,-0.9726562 0.269531,-1.2773437 0.398437,-0.609375 1.242187,-1.0429688 2.085937,-1.0429688 z m 0,0"
       style="fill:#000000;fill-opacity:1;fill-rule:nonzero;stroke:none"
       aria-label="0.6"
       transform="matrix(1.3333333,0,0,1.3333333,486.98667,741.49333)" />
    <path
       id="path19"
       d="m 4.7357813,-12.399297 c -2.7890625,0 -4.2070313,2.214844 -4.2070313,6.5625001 0,2.109375 0.375,3.9257813 1.0078125,4.8046875 0.6210938,0.89062503 1.6289063,1.39453128 2.7539063,1.39453128 2.71875,0 4.078125,-2.32031248 4.078125,-6.97265628 0,-3.9257816 -1.171875,-5.7890626 -3.6328125,-5.7890626 z m -0.328125,0.621094 c 1.7460937,0 2.4492187,1.769531 2.4492187,6.0937499 0,2.2148437 -0.1992187,3.5390625 -0.6796875,4.40625 -0.3632812,0.66796873 -0.9140625,1.00781248 -1.6523437,1.00781248 -1.7695313,0 -2.484375,-1.81640628 -2.484375,-6.21093748 0,-3.8203129 0.65625,-5.2968749 2.3671875,-5.2968749 z m 6.8203127,9.7851561 c -0.539063,0 -1.019531,0.5039063 -1.019531,1.04296878 0,0.55078125 0.480468,1.04296875 1.007812,1.04296875 0.574219,0 1.078125,-0.4921875 1.078125,-1.04296875 0,-0.53906248 -0.503906,-1.04296878 -1.066406,-1.04296878 z m 3.28125,1.81640628 0.164062,0.234375 c 0.515625,-0.03515625 0.679688,-0.058593755 0.820313,-0.058593755 0.152344,0 0.316406,0.023437505 0.832031,0.058593755 0.761719,-1.96874998 1.640625,-3.84374998 2.824219,-5.99999998 l 3.292969,-5.9179684 v -0.539063 c -1.59375,0.07031 -2.601563,0.08203 -4.03125,0.08203 -1.359375,0 -2.226563,-0.01172 -3.9375,-0.08203 l -0.175782,0.08203 c 0.03516,1.125 0.04687,1.628907 0.04687,1.898438 0,0.269531 -0.01172,0.7382811 -0.04687,1.8281249 h 0.539063 l 0.117187,-1.0078125 c 0.152344,-1.1132814 0.257813,-1.2421874 1.101563,-1.2539064 h 4.804687 c -0.714843,1.4765626 -1.277343,2.5195314 -1.957031,3.6210939 z m 0,0"
       style="fill:#000000;fill-opacity:1;fill-rule:nonzero;stroke:none"
       aria-label="0.7"
       transform="matrix(1.3333333,0,0,1.3333333,548.92,741.49333)" />
    <path
       id="path20"
       d="m 4.7330469,-12.399297 c -2.7890625,0 -4.20703127,2.214844 -4.20703127,6.5625001 0,2.109375 0.375,3.9257813 1.00781247,4.8046875 0.6210938,0.89062503 1.6289063,1.39453128 2.7539063,1.39453128 2.71875,0 4.078125,-2.32031248 4.078125,-6.97265628 0,-3.9257816 -1.171875,-5.7890626 -3.6328125,-5.7890626 z m -0.328125,0.621094 c 1.7460937,0 2.4492187,1.769531 2.4492187,6.0937499 0,2.2148437 -0.1992187,3.5390625 -0.6796875,4.40625 -0.3632812,0.66796873 -0.9140625,1.00781248 -1.6523437,1.00781248 -1.7695313,0 -2.484375,-1.81640628 -2.484375,-6.21093748 0,-3.8203129 0.65625,-5.2968749 2.3671875,-5.2968749 z m 6.8203121,9.7851561 c -0.539062,0 -1.019531,0.5039063 -1.019531,1.04296878 0,0.55078125 0.480469,1.04296875 1.007813,1.04296875 0.574218,0 1.078125,-0.4921875 1.078125,-1.04296875 0,-0.53906248 -0.503907,-1.04296878 -1.066407,-1.04296878 z m 5.296875,-4.21875 c -0.738281,0.3398438 -1.042968,0.5390625 -1.441406,0.9140625 -0.679687,0.6914063 -1.042969,1.5 -1.042969,2.4375 0,1.87500003 1.476563,3.22265628 3.527344,3.22265628 2.355469,0 4.289063,-1.83984378 4.289063,-4.08984378 0,-1.4179687 -0.65625,-2.1914062 -2.71875,-3.1289062 1.640625,-1.1132813 2.214843,-1.875 2.214843,-2.953125 0,-1.5468749 -1.277343,-2.5898439 -3.1875,-2.5898439 -2.144531,0 -3.714843,1.359375 -3.714843,3.2578126 0,1.21875 0.46875,1.9101563 2.074218,2.9296875 z m 2.085938,0.9023438 c 1.160156,0.515625 1.816406,1.3828125 1.816406,2.3554687 0,1.5117188 -1.125,2.69531253 -2.589844,2.69531253 -1.523437,0 -2.519531,-1.05468753 -2.519531,-2.75390623 0,-1.3125 0.527344,-2.1328125 1.851563,-2.9414063 z m -1.089844,-2.3085938 c -1.136719,-0.5507812 -1.710937,-1.2773437 -1.710937,-2.1796875 0,-1.1953126 0.855468,-1.9921876 2.132812,-1.9921876 1.324219,0 2.179688,0.867188 2.179688,2.1796876 0,1.0195313 -0.445313,1.7226563 -1.617188,2.484375 z m 0,0"
       style="fill:#000000;fill-opacity:1;fill-rule:nonzero;stroke:none"
       aria-label="0.8"
       transform="matrix(1.3333333,0,0,1.3333333,610.85333,741.49333)" />
    <path
       id="path21"
       d="m 4.7332422,-12.399297 c -2.7890625,0 -4.20703126,2.214844 -4.20703126,6.5625001 0,2.109375 0.375,3.9257813 1.00781246,4.8046875 0.6210938,0.89062503 1.6289063,1.39453128 2.7539063,1.39453128 2.71875,0 4.078125,-2.32031248 4.078125,-6.97265628 0,-3.9257816 -1.171875,-5.7890626 -3.6328125,-5.7890626 z m -0.328125,0.621094 c 1.7460937,0 2.4492187,1.769531 2.4492187,6.0937499 0,2.2148437 -0.1992187,3.5390625 -0.6796875,4.40625 -0.3632812,0.66796873 -0.9140625,1.00781248 -1.6523437,1.00781248 -1.7695313,0 -2.484375,-1.81640628 -2.484375,-6.21093748 0,-3.8203129 0.65625,-5.2968749 2.3671875,-5.2968749 z m 6.8203128,9.7851561 c -0.539063,0 -1.019532,0.5039063 -1.019532,1.04296878 0,0.55078125 0.480469,1.04296875 1.007813,1.04296875 0.574219,0 1.078125,-0.4921875 1.078125,-1.04296875 0,-0.53906248 -0.503906,-1.04296878 -1.066406,-1.04296878 z m 3.996093,2.35546878 c 2.003907,-0.65625 2.871094,-1.06640625 3.84375,-1.89843748 1.746094,-1.4882813 2.660157,-3.5625 2.660157,-5.9765625 0,-3.0351559 -1.453125,-4.8867189 -3.832032,-4.8867189 -2.308593,0 -4.03125,1.792969 -4.03125,4.2070314 0,2.0859375 1.347657,3.5859375 3.222657,3.5859375 0.609375,0 1.3125,-0.1992188 1.628906,-0.46875 l 1.265625,-1.0429688 c -0.140625,3.0234375 -2.109375,5.23828128 -5.367188,6.02343753 V 0.05773438 Z M 17.823086,-11.813359 c 0.808594,0 1.394531,0.351562 1.792969,1.066406 0.328125,0.574219 0.539062,1.4531249 0.539062,2.2499999 0,1.6757812 -0.9375,2.7890625 -2.332031,2.7890625 -1.441406,0 -2.414063,-1.2773438 -2.414063,-3.1523438 0,-1.8164066 0.914063,-2.9531246 2.414063,-2.9531246 z m 0,0"
       style="fill:#000000;fill-opacity:1;fill-rule:nonzero;stroke:none"
       aria-label="0.9"
       transform="matrix(1.3333333,0,0,1.3333333,672.78667,741.49333)" />
    <path
       id="path22"
       d="m 1.2078125,-9.9852344 h 0.1757813 l 2.3203125,-1.0546876 c 0.023437,-0.01172 0.035156,-0.01172 0.058594,-0.01172 0.1054688,0 0.140625,0.164063 0.140625,0.597657 v 8.7304684 c 0,0.92578123 -0.1992187,1.12499998 -1.171875,1.18359373 l -1.0078125,0.0585938 v 0.5390625 C 3.29375,0.02257813 4.3015625,-8.59375e-4 4.7,-8.59375e-4 c 0.234375,0 0.6445313,0 1.2421875,0.023437505 0.2460938,0.01171875 0.7382813,0.01171875 1.5820313,0.03515625 v -0.5390625 l -0.9375,-0.0585938 C 5.6140625,-0.59851562 5.4148438,-0.79773437 5.4148438,-1.7235156 V -12.399297 L 5.16875,-12.493047 c -1.2070312,0.632813 -2.4140625,1.136719 -4.0898437,1.722656 z m 10.0195315,7.9921875 c -0.539063,0 -1.019531,0.5039063 -1.019531,1.04296878 0,0.55078125 0.480468,1.04296875 1.007812,1.04296875 0.574219,0 1.078125,-0.4921875 1.078125,-1.04296875 0,-0.53906248 -0.503906,-1.04296878 -1.066406,-1.04296878 z m 7.007812,-10.4062501 c -2.789062,0 -4.207031,2.214844 -4.207031,6.5625001 0,2.109375 0.375,3.9257813 1.007813,4.8046875 0.621093,0.89062503 1.628906,1.39453128 2.753906,1.39453128 2.71875,0 4.078125,-2.32031248 4.078125,-6.97265628 0,-3.9257816 -1.171875,-5.7890626 -3.632813,-5.7890626 z m -0.328125,0.621094 c 1.746094,0 2.449219,1.769531 2.449219,6.0937499 0,2.2148437 -0.199219,3.5390625 -0.679687,4.40625 -0.363282,0.66796873 -0.914063,1.00781248 -1.652344,1.00781248 -1.769531,0 -2.484375,-1.81640628 -2.484375,-6.21093748 0,-3.8203129 0.65625,-5.2968749 2.367187,-5.2968749 z m 0,0"
       style="fill:#000000;fill-opacity:1;fill-rule:nonzero;stroke:none"
       aria-label="1.0"
       transform="matrix(1.3333333,0,0,1.3333333,734.73333,741.49333)" />
    <path
       id="path23"
       d="M 79.2,90.58 H 72"
       style="fill:none;stroke:#bbbbbb;stroke-width:0.75;stroke-linecap:round;stroke-linejoin:round;stroke-miterlimit:10;stroke-dasharray:none;stroke-opacity:0.502"
       transform="matrix(1.3333333,0,0,-1.3333333,0,793.33333)" />
    <path
       id="path24"
       d="M 79.2,137.03 H 72"
       style="fill:none;stroke:#bbbbbb;stroke-width:0.75;stroke-linecap:round;stroke-linejoin:round;stroke-miterlimit:10;stroke-dasharray:none;stroke-opacity:0.502"
       transform="matrix(1.3333333,0,0,-1.3333333,0,793.33333)" />
    <path
       id="path25"
       d="M 79.2,183.48 H 72"
       style="fill:none;stroke:#bbbbbb;stroke-width:0.75;stroke-linecap:round;stroke-linejoin:round;stroke-miterlimit:10;stroke-dasharray:none;stroke-opacity:0.502"
       transform="matrix(1.3333333,0,0,-1.3333333,0,793.33333)" />
    <path
       id="path26"
       d="M 79.2,229.93 H 72"
       style="fill:none;stroke:#bbbbbb;stroke-width:0.75;stroke-linecap:round;stroke-linejoin:round;stroke-miterlimit:10;stroke-dasharray:none;stroke-opacity:0.502"
       transform="matrix(1.3333333,0,0,-1.3333333,0,793.33333)" />
    <path
       id="path27"
       d="M 79.2,276.39 H 72"
       style="fill:none;stroke:#bbbbbb;stroke-width:0.75;stroke-linecap:round;stroke-linejoin:round;stroke-miterlimit:10;stroke-dasharray:none;stroke-opacity:0.502"
       transform="matrix(1.3333333,0,0,-1.3333333,0,793.33333)" />
    <path
       id="path28"
       d="M 79.2,322.84 H 72"
       style="fill:none;stroke:#bbbbbb;stroke-width:0.75;stroke-linecap:round;stroke-linejoin:round;stroke-miterlimit:10;stroke-dasharray:none;stroke-opacity:0.502"
       transform="matrix(1.3333333,0,0,-1.3333333,0,793.33333)" />
    <path
       id="path29"
       d="M 79.2,369.29 H 72"
       style="fill:none;stroke:#bbbbbb;stroke-width:0.75;stroke-linecap:round;stroke-linejoin:round;stroke-miterlimit:10;stroke-dasharray:none;stroke-opacity:0.502"
       transform="matrix(1.3333333,0,0,-1.3333333,0,793.33333)" />
    <path
       id="path30"
       d="M 79.2,415.74 H 72"
       style="fill:none;stroke:#bbbbbb;stroke-width:0.75;stroke-linecap:round;stroke-linejoin:round;stroke-miterlimit:10;stroke-dasharray:none;stroke-opacity:0.502"
       transform="matrix(1.3333333,0,0,-1.3333333,0,793.33333)" />
    <path
       id="path31"
       d="M 79.2,462.19 H 72"
       style="fill:none;stroke:#bbbbbb;stroke-width:0.75;stroke-linecap:round;stroke-linejoin:round;stroke-miterlimit:10;stroke-dasharray:none;stroke-opacity:0.502"
       transform="matrix(1.3333333,0,0,-1.3333333,0,793.33333)" />
    <path
       id="path32"
       d="M 79.2,508.64 H 72"
       style="fill:none;stroke:#bbbbbb;stroke-width:0.75;stroke-linecap:round;stroke-linejoin:round;stroke-miterlimit:10;stroke-dasharray:none;stroke-opacity:0.502"
       transform="matrix(1.3333333,0,0,-1.3333333,0,793.33333)" />
    <path
       id="path33"
       d="M 79.2,555.1 H 72"
       style="fill:none;stroke:#bbbbbb;stroke-width:0.75;stroke-linecap:round;stroke-linejoin:round;stroke-miterlimit:10;stroke-dasharray:none;stroke-opacity:0.502"
       transform="matrix(1.3333333,0,0,-1.3333333,0,793.33333)" />
    <path
       id="path34"
       d="m 4.7332031,-12.398047 c -2.7890625,0 -4.20703122,2.214844 -4.20703122,6.5625001 0,2.109375 0.375,3.9257813 1.00781252,4.8046875 0.6210937,0.89062503 1.6289062,1.39453128 2.7539062,1.39453128 2.71875,0 4.078125,-2.32031248 4.078125,-6.97265628 0,-3.9257816 -1.171875,-5.7890626 -3.6328125,-5.7890626 z m -0.328125,0.621094 c 1.7460938,0 2.4492188,1.769531 2.4492188,6.0937499 0,2.2148437 -0.1992188,3.5390625 -0.6796875,4.40625 -0.3632813,0.66796873 -0.9140625,1.00781248 -1.6523438,1.00781248 -1.7695312,0 -2.484375,-1.81640628 -2.484375,-6.21093748 0,-3.8203129 0.65625,-5.2968749 2.3671875,-5.2968749 z m 6.8203129,9.7851561 c -0.539063,0 -1.019532,0.5039063 -1.019532,1.04296878 0,0.55078125 0.480469,1.04296875 1.007813,1.04296875 0.574219,0 1.078125,-0.4921875 1.078125,-1.04296875 0,-0.53906248 -0.503906,-1.04296878 -1.066406,-1.04296878 z m 7.007812,-10.4062501 c -2.789062,0 -4.207031,2.214844 -4.207031,6.5625001 0,2.109375 0.375,3.9257813 1.007812,4.8046875 0.621094,0.89062503 1.628907,1.39453128 2.753907,1.39453128 2.71875,0 4.078125,-2.32031248 4.078125,-6.97265628 0,-3.9257816 -1.171875,-5.7890626 -3.632813,-5.7890626 z m -0.328125,0.621094 c 1.746094,0 2.449219,1.769531 2.449219,6.0937499 0,2.2148437 -0.199219,3.5390625 -0.679688,4.40625 -0.363281,0.66796873 -0.914062,1.00781248 -1.652343,1.00781248 -1.769532,0 -2.484375,-1.81640628 -2.484375,-6.21093748 0,-3.8203129 0.65625,-5.2968749 2.367187,-5.2968749 z m 0,0"
       style="fill:#000000;fill-opacity:1;fill-rule:nonzero;stroke:none"
       aria-label="0.0"
       transform="matrix(1.3333333,0,0,1.3333333,56.4,680.86667)" />
    <path
       id="path35"
       d="m 4.7332031,-12.398242 c -2.7890625,0 -4.20703122,2.214844 -4.20703122,6.5624998 0,2.109375 0.375,3.9257813 1.00781252,4.8046875 0.6210937,0.89062501 1.6289062,1.39453126 2.7539062,1.39453126 2.71875,0 4.078125,-2.32031246 4.078125,-6.97265626 0,-3.9257813 -1.171875,-5.7890623 -3.6328125,-5.7890623 z m -0.328125,0.621094 c 1.7460938,0 2.4492188,1.769531 2.4492188,6.0937496 0,2.2148437 -0.1992188,3.5390625 -0.6796875,4.40625 -0.3632813,0.66796871 -0.9140625,1.00781246 -1.6523438,1.00781246 -1.7695312,0 -2.484375,-1.81640626 -2.484375,-6.21093746 0,-3.8203126 0.65625,-5.2968746 2.3671875,-5.2968746 z m 6.8203129,9.7851558 c -0.539063,0 -1.019532,0.5039063 -1.019532,1.04296876 0,0.55078125 0.480469,1.04296875 1.007813,1.04296875 0.574219,0 1.078125,-0.4921875 1.078125,-1.04296875 0,-0.53906246 -0.503906,-1.04296876 -1.066406,-1.04296876 z m 3.480468,-7.9921875 h 0.175782 l 2.320312,-1.0546873 c 0.02344,-0.01172 0.03516,-0.01172 0.05859,-0.01172 0.105469,0 0.140625,0.164063 0.140625,0.597656 v 8.7304691 c 0,0.92578121 -0.199219,1.12499996 -1.171875,1.18359371 l -1.007813,0.0585938 v 0.5390625 c 1.570313,-0.03515625 2.578125,-0.0585937475 2.976563,-0.0585937475 0.234375,0 0.644531,0 1.242187,0.0234374975 0.246094,0.01171875 0.738282,0.01171875 1.582032,0.03515625 v -0.5390625 l -0.9375,-0.0585938 c -0.972657,-0.0585938 -1.171875,-0.2578125 -1.171875,-1.18359371 V -12.398242 l -0.246094,-0.09375 c -1.207031,0.632812 -2.414063,1.136719 -4.089844,1.722656 z m 0,0"
       style="fill:#000000;fill-opacity:1;fill-rule:nonzero;stroke:none"
       aria-label="0.1"
       transform="matrix(1.3333333,0,0,1.3333333,56.4,618.93333)" />
    <path
       id="path36"
       d="m 4.7332031,-12.397227 c -2.7890625,0 -4.20703122,2.214844 -4.20703122,6.5625004 0,2.109375 0.375,3.9257813 1.00781252,4.8046875 0.6210937,0.89062504 1.6289062,1.39453129 2.7539062,1.39453129 2.71875,0 4.078125,-2.32031249 4.078125,-6.97265629 0,-3.9257809 -1.171875,-5.7890629 -3.6328125,-5.7890629 z m -0.328125,0.621094 c 1.7460938,0 2.4492188,1.769531 2.4492188,6.0937502 0,2.2148437 -0.1992188,3.5390625 -0.6796875,4.40625 -0.3632813,0.66796874 -0.9140625,1.00781249 -1.6523438,1.00781249 -1.7695312,0 -2.484375,-1.81640629 -2.484375,-6.21093749 0,-3.8203122 0.65625,-5.2968752 2.3671875,-5.2968752 z m 6.8203129,9.7851564 c -0.539063,0 -1.019532,0.5039063 -1.019532,1.04296879 0,0.55078125 0.480469,1.04296875 1.007813,1.04296875 0.574219,0 1.078125,-0.4921875 1.078125,-1.04296875 0,-0.53906249 -0.503906,-1.04296879 -1.066406,-1.04296879 z m 2.566406,1.58203129 v 0.46875 c 2.191406,-0.03515625 3.222656,-0.05859375 4.007812,-0.05859375 0.773438,0 1.839844,0.0234375 4.125,0.05859375 -0.03516,-0.36328125 -0.03516,-0.5390625 -0.03516,-0.8203125 0,-0.24609379 0,-0.42187499 0.03516,-0.80859379 -2.074218,0.09375 -2.894531,0.1171875 -6.234375,0.1875 l 3.28125,-3.4804687 c 1.746094,-1.8515625 2.285157,-2.8359375 2.285157,-4.1953125 0,-2.0625002 -1.40625,-3.3398442 -3.691407,-3.3398442 -1.289062,0 -2.15625,0.351563 -3.058593,1.253907 l -0.304688,2.4492184 h 0.515625 l 0.234375,-0.8320312 c 0.292969,-1.0429692 0.9375,-1.4882812 2.144531,-1.4882812 1.570313,0 2.542969,0.949219 2.542969,2.4960937 0,1.3710937 -0.761719,2.6835937 -2.789062,4.8515625 z m 0,0"
       style="fill:#000000;fill-opacity:1;fill-rule:nonzero;stroke:none"
       aria-label="0.2"
       transform="matrix(1.3333333,0,0,1.3333333,56.4,556.98667)" />
    <path
       id="path37"
       d="m 4.7332031,-12.397422 c -2.7890625,0 -4.20703122,2.214844 -4.20703122,6.5625001 0,2.109375 0.375,3.9257813 1.00781252,4.8046875 0.6210937,0.89062503 1.6289062,1.39453128 2.7539062,1.39453128 2.71875,0 4.078125,-2.32031248 4.078125,-6.97265628 0,-3.9257816 -1.171875,-5.7890626 -3.6328125,-5.7890626 z m -0.328125,0.621094 c 1.7460938,0 2.4492188,1.769531 2.4492188,6.0937499 0,2.2148437 -0.1992188,3.5390625 -0.6796875,4.40625 -0.3632813,0.66796873 -0.9140625,1.00781248 -1.6523438,1.00781248 -1.7695312,0 -2.484375,-1.81640628 -2.484375,-6.21093748 0,-3.8203129 0.65625,-5.2968749 2.3671875,-5.2968749 z m 6.8203129,9.7851561 c -0.539063,0 -1.019532,0.5039063 -1.019532,1.04296878 0,0.55078125 0.480469,1.04296875 1.007813,1.04296875 0.574219,0 1.078125,-0.4921875 1.078125,-1.04296875 0,-0.53906248 -0.503906,-1.04296878 -1.066406,-1.04296878 z m 3.046875,-6.9726562 h 0.5625 l 0.316406,-1.0078125 c 0.199219,-0.6093754 1.335937,-1.2187504 2.285156,-1.2187504 1.160156,0 2.109375,0.925782 2.109375,2.0976566 0,1.3359375 -1.066406,2.4726563 -2.34375,2.4726563 -0.117187,0 -0.316406,-0.023437 -0.574219,-0.035156 -0.03516,0 -0.140625,0 -0.269531,-0.023437 l -0.210937,0.9609375 0.128906,0.1054688 c 0.679687,-0.3046875 1.007812,-0.3984375 1.511719,-0.3984375 1.488281,0 2.355468,0.9492187 2.355468,2.5898437 0,1.8398438 -1.101562,3.04687503 -2.777343,3.04687503 -0.84375,0 -1.582032,-0.26953125 -2.097657,-0.77343753 -0.457031,-0.421875 -0.667968,-0.8085937 -1.007812,-1.78125 l -0.492188,0.1757813 c 0.375,1.1015625 0.527344,1.7460937 0.632813,2.64843748 0.949219,0.31640625 1.722656,0.46875 2.414062,0.46875 1.441407,0 3.09375,-0.80859375 4.078125,-2.01562498 0.621094,-0.7382813 0.925782,-1.5351563 0.925782,-2.3789063 0,-0.8789062 -0.363282,-1.6171875 -1.007813,-2.0742187 -0.457031,-0.3164063 -0.890625,-0.46875 -1.769531,-0.6210938 1.441406,-1.125 1.980469,-1.9335937 1.980469,-3.0117187 0,-1.6054682 -1.335938,-2.6601562 -3.328125,-2.6601562 -1.230469,0 -2.050782,0.339844 -2.894532,1.207031 z m 0,0"
       style="fill:#000000;fill-opacity:1;fill-rule:nonzero;stroke:none"
       aria-label="0.3"
       transform="matrix(1.3333333,0,0,1.3333333,56.4,495.05333)" />
    <path
       id="path38"
       d="m 4.7332031,-12.397617 c -2.7890625,0 -4.20703122,2.214844 -4.20703122,6.5624998 0,2.109375 0.375,3.9257813 1.00781252,4.8046875 0.6210937,0.89062501 1.6289062,1.39453126 2.7539062,1.39453126 2.71875,0 4.078125,-2.32031246 4.078125,-6.97265626 0,-3.9257813 -1.171875,-5.7890623 -3.6328125,-5.7890623 z m -0.328125,0.621094 c 1.7460938,0 2.4492188,1.769531 2.4492188,6.0937496 0,2.2148437 -0.1992188,3.5390625 -0.6796875,4.40625 -0.3632813,0.66796871 -0.9140625,1.00781246 -1.6523438,1.00781246 -1.7695312,0 -2.484375,-1.81640626 -2.484375,-6.21093746 0,-3.8203126 0.65625,-5.2968746 2.3671875,-5.2968746 z m 6.8203129,9.7851558 c -0.539063,0 -1.019532,0.5039063 -1.019532,1.04296876 0,0.55078125 0.480469,1.04296875 1.007813,1.04296875 0.574219,0 1.078125,-0.4921875 1.078125,-1.04296875 0,-0.53906246 -0.503906,-1.04296876 -1.066406,-1.04296876 z m 7.3125,-1.265625 v 1.3476563 c -0.03516,1.11328121 -0.175782,1.31249996 -1.078125,1.37109371 l -1.113282,0.0585937 v 0.5390625 c 1.617188,-0.03515625 2.320313,-0.0585937475 2.824219,-0.0585937475 0.539063,0 1.253906,0.0234374975 2.824219,0.0585937475 v -0.5390625 l -0.867188,-0.0585937 c -0.902343,-0.0703125 -1.042968,-0.2578125 -1.078125,-1.37109371 v -1.3476563 c 1.066407,0 1.441407,0.023437 1.945313,0.070312 v -1.2773437 c -0.5625,0.058594 -0.902344,0.058594 -1.453125,0.058594 h -0.492188 v -2.5078125 c 0,-3.3632806 0.03516,-5.0156246 0.128907,-5.4843746 l -0.222657,-0.09375 -1.324218,0.480469 -5.097657,8.3437494 0.199219,0.4101562 z m 0,-1.1484375 h -3.867188 l 3.867188,-6.3398433 z m 0,0"
       style="fill:#000000;fill-opacity:1;fill-rule:nonzero;stroke:none"
       aria-label="0.4"
       transform="matrix(1.3333333,0,0,1.3333333,56.4,433.12)" />
    <path
       id="path39"
       d="m 4.7332031,-12.397812 c -2.7890625,0 -4.20703122,2.214843 -4.20703122,6.5624995 0,2.109375 0.375,3.9257813 1.00781252,4.8046875 0.6210937,0.890625 1.6289062,1.39453125 2.7539062,1.39453125 2.71875,0 4.078125,-2.32031245 4.078125,-6.97265625 0,-3.925781 -1.171875,-5.789062 -3.6328125,-5.789062 z m -0.328125,0.621093 c 1.7460938,0 2.4492188,1.769532 2.4492188,6.0937503 0,2.2148437 -0.1992188,3.5390625 -0.6796875,4.40625 -0.3632813,0.6679687 -0.9140625,1.00781245 -1.6523438,1.00781245 -1.7695312,0 -2.484375,-1.81640625 -2.484375,-6.21093745 0,-3.8203123 0.65625,-5.2968753 2.3671875,-5.2968753 z m 6.8203129,9.7851565 c -0.539063,0 -1.019532,0.5039063 -1.019532,1.04296875 0,0.55078125 0.480469,1.04296875 1.007813,1.04296875 0.574219,0 1.078125,-0.4921875 1.078125,-1.04296875 0,-0.53906245 -0.503906,-1.04296875 -1.066406,-1.04296875 z m 4.558593,-8.8945315 c 2.285157,0.07031 3.28125,0.08203 5.496094,0.08203 l 0.08203,-0.08203 c -0.03516,-0.328125 -0.03516,-0.46875 -0.03516,-0.726562 0,-0.234375 0,-0.375 0.03516,-0.703125 l -0.08203,-0.08203 c -1.324219,0.07031 -2.109375,0.08203 -3.140625,0.08203 -1.019531,0 -1.816406,-0.01172 -3.128906,-0.08203 l -0.09375,0.08203 c 0.02344,1.101562 0.03516,1.933594 0.03516,2.5078123 0,1.5703125 -0.04687,3.2578125 -0.105469,4.0078125 l 0.363282,0.1171875 c 0.84375,-0.8671875 1.335937,-1.1015625 2.214843,-1.1015625 1.722657,0 2.800782,1.21875 2.800782,3.1640625 0,2.0039062 -1.148438,3.1757812 -3.105469,3.1757812 -0.996094,0 -1.875,-0.328125 -2.132813,-0.796875 l -0.820312,-1.4765625 -0.433594,0.2578125 c 0.410156,1.0195313 0.632813,1.59375 0.878906,2.390625 0.503907,0.28125 1.207032,0.43359375 2.003907,0.43359375 1.207031,0 2.484375,-0.52734375 3.492187,-1.39453125 1.078125,-0.9492187 1.652344,-2.1914062 1.652344,-3.5273437 0,-2.0273438 -1.453125,-3.46875 -3.503906,-3.46875 -0.867188,0 -1.523438,0.2109375 -2.636719,0.9023437 z m 0,0"
       style="fill:#000000;fill-opacity:1;fill-rule:nonzero;stroke:none"
       aria-label="0.5"
       transform="matrix(1.3333333,0,0,1.3333333,56.4,371.18667)" />
    <path
       id="path40"
       d="m 4.7332031,-12.398008 c -2.7890625,0 -4.20703122,2.214844 -4.20703122,6.5625002 0,2.109375 0.375,3.9257812 1.00781252,4.8046875 0.6210937,0.89062499 1.6289062,1.39453124 2.7539062,1.39453124 2.71875,0 4.078125,-2.32031254 4.078125,-6.97265624 0,-3.9257817 -1.171875,-5.7890627 -3.6328125,-5.7890627 z m -0.328125,0.621094 c 1.7460938,0 2.4492188,1.769531 2.4492188,6.0937499 0,2.2148438 -0.1992188,3.5390625 -0.6796875,4.40625 -0.3632813,0.66796879 -0.9140625,1.00781254 -1.6523438,1.00781254 -1.7695312,0 -2.484375,-1.81640624 -2.484375,-6.21093754 0,-3.8203129 0.65625,-5.2968749 2.3671875,-5.2968749 z m 6.8203129,9.7851562 c -0.539063,0 -1.019532,0.5039062 -1.019532,1.04296874 0,0.55078125 0.480469,1.04296875 1.007813,1.04296875 0.574219,0 1.078125,-0.4921875 1.078125,-1.04296875 0,-0.53906254 -0.503906,-1.04296874 -1.066406,-1.04296874 z m 4.628906,-3.9609375 c 0.375,-3.2578125 1.886719,-5.0273437 5.132812,-5.9999997 v -0.140625 l -0.667968,-0.304688 c -1.722657,0.574219 -2.460938,0.9375 -3.386719,1.722656 -1.851563,1.5703129 -2.859375,3.7617192 -2.859375,6.2343754 0,2.9882813 1.417969,4.80468754 3.761719,4.80468754 2.34375,0 4.089843,-1.83984374 4.089843,-4.30078124 0,-2.0742188 -1.242187,-3.421875 -3.152343,-3.421875 -0.902344,0 -1.441407,0.234375 -2.496094,1.078125 z m 2.214844,-0.328125 c 1.40625,0 2.308593,1.171875 2.308593,2.9648437 0,1.875 -0.902343,3.08203129 -2.308593,3.08203129 -1.546875,0 -2.355469,-1.30078129 -2.355469,-3.72656249 0,-0.6445313 0.07031,-0.9726563 0.269531,-1.2773438 0.398438,-0.609375 1.242188,-1.0429687 2.085938,-1.0429687 z m 0,0"
       style="fill:#000000;fill-opacity:1;fill-rule:nonzero;stroke:none"
       aria-label="0.6"
       transform="matrix(1.3333333,0,0,1.3333333,56.4,309.25333)" />
    <path
       id="path41"
       d="m 4.7332031,-12.398203 c -2.7890625,0 -4.20703122,2.214844 -4.20703122,6.5624999 0,2.109375 0.375,3.9257812 1.00781252,4.8046875 0.6210937,0.89062498 1.6289062,1.39453123 2.7539062,1.39453123 2.71875,0 4.078125,-2.32031253 4.078125,-6.97265623 0,-3.9257814 -1.171875,-5.7890624 -3.6328125,-5.7890624 z m -0.328125,0.621094 c 1.7460938,0 2.4492188,1.769531 2.4492188,6.0937496 0,2.2148438 -0.1992188,3.5390625 -0.6796875,4.40625 -0.3632813,0.66796878 -0.9140625,1.00781253 -1.6523438,1.00781253 -1.7695312,0 -2.484375,-1.81640623 -2.484375,-6.21093753 0,-3.8203126 0.65625,-5.2968746 2.3671875,-5.2968746 z m 6.8203129,9.7851559 c -0.539063,0 -1.019532,0.5039062 -1.019532,1.04296873 0,0.55078125 0.480469,1.04296875 1.007813,1.04296875 0.574219,0 1.078125,-0.4921875 1.078125,-1.04296875 0,-0.53906253 -0.503906,-1.04296873 -1.066406,-1.04296873 z m 3.28125,1.81640623 0.164062,0.234375 c 0.515625,-0.03515625 0.679688,-0.058593755 0.820313,-0.058593755 0.152343,0 0.316406,0.023437505 0.832031,0.058593755 0.761719,-1.96875003 1.640625,-3.84375003 2.824219,-6.00000003 l 3.292968,-5.9179691 v -0.539062 c -1.59375,0.07031 -2.601562,0.08203 -4.03125,0.08203 -1.359375,0 -2.226562,-0.01172 -3.9375,-0.08203 l -0.175781,0.08203 c 0.03516,1.125 0.04687,1.628906 0.04687,1.898438 0,0.269531 -0.01172,0.7382809 -0.04687,1.8281246 h 0.539063 l 0.117187,-1.0078125 c 0.152344,-1.1132811 0.257813,-1.2421871 1.101563,-1.2539061 h 4.804687 c -0.714844,1.4765624 -1.277344,2.5195311 -1.957031,3.6210936 z m 0,0"
       style="fill:#000000;fill-opacity:1;fill-rule:nonzero;stroke:none"
       aria-label="0.7"
       transform="matrix(1.3333333,0,0,1.3333333,56.4,247.32)" />
    <path
       id="path42"
       d="m 4.7332031,-12.398398 c -2.7890625,0 -4.20703122,2.214843 -4.20703122,6.5624996 0,2.109375 0.375,3.9257812 1.00781252,4.8046875 0.6210937,0.89062496 1.6289062,1.39453121 2.7539062,1.39453121 2.71875,0 4.078125,-2.32031251 4.078125,-6.97265621 0,-3.9257811 -1.171875,-5.7890621 -3.6328125,-5.7890621 z m -0.328125,0.621093 c 1.7460938,0 2.4492188,1.769532 2.4492188,6.0937503 0,2.2148438 -0.1992188,3.5390625 -0.6796875,4.40625 -0.3632813,0.66796876 -0.9140625,1.00781251 -1.6523438,1.00781251 -1.7695312,0 -2.484375,-1.81640621 -2.484375,-6.21093751 0,-3.8203123 0.65625,-5.2968753 2.3671875,-5.2968753 z m 6.8203129,9.7851566 c -0.539063,0 -1.019532,0.5039062 -1.019532,1.04296871 0,0.55078125 0.480469,1.04296875 1.007813,1.04296875 0.574219,0 1.078125,-0.4921875 1.078125,-1.04296875 0,-0.53906251 -0.503906,-1.04296871 -1.066406,-1.04296871 z m 5.296875,-4.21875 c -0.738282,0.3398437 -1.042969,0.5390625 -1.441407,0.9140625 -0.679687,0.6914062 -1.042968,1.5 -1.042968,2.4375 0,1.87499996 1.476562,3.22265621 3.527343,3.22265621 2.355469,0 4.289063,-1.83984371 4.289063,-4.08984371 0,-1.4179688 -0.65625,-2.1914063 -2.71875,-3.1289063 1.640625,-1.1132812 2.214844,-1.875 2.214844,-2.953125 0,-1.5468753 -1.277344,-2.5898433 -3.1875,-2.5898433 -2.144532,0 -3.714844,1.359375 -3.714844,3.2578121 0,1.21875 0.46875,1.9101562 2.074219,2.9296875 z m 2.085937,0.9023437 c 1.160156,0.515625 1.816406,1.3828125 1.816406,2.3554688 0,1.5117187 -1.125,2.69531246 -2.589843,2.69531246 -1.523438,0 -2.519532,-1.05468746 -2.519532,-2.75390626 0,-1.3125 0.527344,-2.1328125 1.851563,-2.9414062 z m -1.089844,-2.3085937 c -1.136718,-0.5507813 -1.710937,-1.2773438 -1.710937,-2.1796875 0,-1.1953121 0.855469,-1.9921871 2.132812,-1.9921871 1.324219,0 2.179688,0.867187 2.179688,2.1796871 0,1.0195312 -0.445313,1.7226562 -1.617188,2.484375 z m 0,0"
       style="fill:#000000;fill-opacity:1;fill-rule:nonzero;stroke:none"
       aria-label="0.8"
       transform="matrix(1.3333333,0,0,1.3333333,56.4,185.38667)" />
    <path
       id="path43"
       d="m 4.7332031,-12.397383 c -2.7890625,0 -4.20703122,2.214844 -4.20703122,6.5625002 0,2.109375 0.375,3.9257812 1.00781252,4.8046875 0.6210937,0.89062499 1.6289062,1.39453124 2.7539062,1.39453124 2.71875,0 4.078125,-2.32031254 4.078125,-6.97265624 0,-3.9257817 -1.171875,-5.7890627 -3.6328125,-5.7890627 z m -0.328125,0.621094 c 1.7460938,0 2.4492188,1.769531 2.4492188,6.0937499 0,2.2148438 -0.1992188,3.5390625 -0.6796875,4.40625 -0.3632813,0.66796879 -0.9140625,1.00781254 -1.6523438,1.00781254 -1.7695312,0 -2.484375,-1.81640624 -2.484375,-6.21093754 0,-3.8203129 0.65625,-5.2968749 2.3671875,-5.2968749 z m 6.8203129,9.7851562 c -0.539063,0 -1.019532,0.5039062 -1.019532,1.04296874 0,0.55078125 0.480469,1.04296875 1.007813,1.04296875 0.574219,0 1.078125,-0.4921875 1.078125,-1.04296875 0,-0.53906254 -0.503906,-1.04296874 -1.066406,-1.04296874 z m 3.996093,2.35546874 c 2.003907,-0.65625 2.871094,-1.06640625 3.84375,-1.89843754 1.746094,-1.4882812 2.660157,-3.5625 2.660157,-5.9765625 0,-3.0351559 -1.453125,-4.8867189 -3.832032,-4.8867189 -2.308593,0 -4.03125,1.792969 -4.03125,4.2070314 0,2.0859375 1.347657,3.5859375 3.222657,3.5859375 0.609375,0 1.3125,-0.1992187 1.628906,-0.46875 l 1.265625,-1.0429687 c -0.140625,3.0234375 -2.109375,5.23828124 -5.367188,6.02343749 V 0.05964844 Z M 17.823047,-11.811445 c 0.808594,0 1.394531,0.351562 1.792969,1.066406 0.328125,0.574219 0.539062,1.4531249 0.539062,2.2499999 0,1.6757813 -0.9375,2.7890625 -2.332031,2.7890625 -1.441406,0 -2.414063,-1.2773437 -2.414063,-3.1523437 0,-1.8164067 0.914063,-2.9531247 2.414063,-2.9531247 z m 0,0"
       style="fill:#000000;fill-opacity:1;fill-rule:nonzero;stroke:none"
       aria-label="0.9"
       transform="matrix(1.3333333,0,0,1.3333333,56.4,123.44)" />
    <path
       id="path44"
       d="m 1.2058594,-9.9835156 h 0.1757812 l 2.3203125,-1.0546874 c 0.023437,-0.01172 0.035156,-0.01172 0.058594,-0.01172 0.1054687,0 0.140625,0.164063 0.140625,0.597656 v 8.7304691 c 0,0.92578128 -0.1992188,1.12500003 -1.171875,1.18359378 l -1.0078125,0.0585938 v 0.5390625 C 3.2917969,0.02429688 4.2996094,8.59375e-4 4.6980469,8.59375e-4 c 0.234375,0 0.6445312,0 1.2421875,0.023437505 0.2460937,0.01171875 0.7382812,0.01171875 1.5820312,0.03515625 v -0.5390625 l -0.9375,-0.0585938 C 5.6121094,-0.59679687 5.4128906,-0.79601562 5.4128906,-1.7217969 V -12.397578 l -0.2460937,-0.09375 c -1.2070313,0.632812 -2.4140625,1.136719 -4.0898438,1.722656 z m 10.0195316,7.9921875 c -0.539063,0 -1.019532,0.5039062 -1.019532,1.04296873 0,0.55078125 0.480469,1.04296875 1.007813,1.04296875 0.574219,0 1.078125,-0.4921875 1.078125,-1.04296875 0,-0.53906253 -0.503906,-1.04296873 -1.066406,-1.04296873 z m 7.007812,-10.4062499 c -2.789062,0 -4.207031,2.214844 -4.207031,6.5624999 0,2.109375 0.375,3.9257812 1.007812,4.8046875 0.621094,0.89062498 1.628907,1.39453123 2.753907,1.39453123 2.71875,0 4.078125,-2.32031253 4.078125,-6.97265623 0,-3.9257814 -1.171875,-5.7890624 -3.632813,-5.7890624 z m -0.328125,0.621094 c 1.746094,0 2.449219,1.769531 2.449219,6.0937496 0,2.2148438 -0.199219,3.5390625 -0.679688,4.40625 -0.363281,0.66796878 -0.914062,1.00781253 -1.652343,1.00781253 -1.769532,0 -2.484375,-1.81640623 -2.484375,-6.21093753 0,-3.8203126 0.65625,-5.2968746 2.367187,-5.2968746 z m 0,0"
       style="fill:#000000;fill-opacity:1;fill-rule:nonzero;stroke:none"
       aria-label="1.0"
       transform="matrix(1.3333333,0,0,1.3333333,56.4,61.506667)" />
    <path
       id="path52"
       d="M 97.78,64.8 V 580.88"
       style="fill:none;stroke:#bbbbbb;stroke-width:0.75;stroke-linecap:round;stroke-linejoin:round;stroke-miterlimit:10;stroke-dasharray:none;stroke-opacity:0.502"
       transform="matrix(1.3333333,0,0,-1.3333333,0,793.33333)"
       clip-path="url(#clipPath53)" />
    <path
       id="path54"
       d="M 144.23,64.8 V 580.88"
       style="fill:none;stroke:#bbbbbb;stroke-width:0.75;stroke-linecap:round;stroke-linejoin:round;stroke-miterlimit:10;stroke-dasharray:none;stroke-opacity:0.502"
       transform="matrix(1.3333333,0,0,-1.3333333,0,793.33333)"
       clip-path="url(#clipPath55)" />
    <path
       id="path56"
       d="M 190.68,64.8 V 580.88"
       style="fill:none;stroke:#bbbbbb;stroke-width:0.75;stroke-linecap:round;stroke-linejoin:round;stroke-miterlimit:10;stroke-dasharray:none;stroke-opacity:0.502"
       transform="matrix(1.3333333,0,0,-1.3333333,0,793.33333)"
       clip-path="url(#clipPath57)" />
    <path
       id="path58"
       d="M 237.13,64.8 V 580.88"
       style="fill:none;stroke:#bbbbbb;stroke-width:0.75;stroke-linecap:round;stroke-linejoin:round;stroke-miterlimit:10;stroke-dasharray:none;stroke-opacity:0.502"
       transform="matrix(1.3333333,0,0,-1.3333333,0,793.33333)"
       clip-path="url(#clipPath59)" />
    <path
       id="path60"
       d="M 283.59,64.8 V 580.88"
       style="fill:none;stroke:#bbbbbb;stroke-width:0.75;stroke-linecap:round;stroke-linejoin:round;stroke-miterlimit:10;stroke-dasharray:none;stroke-opacity:0.502"
       transform="matrix(1.3333333,0,0,-1.3333333,0,793.33333)"
       clip-path="url(#clipPath61)" />
    <path
       id="path62"
       d="M 330.04,64.8 V 580.88"
       style="fill:none;stroke:#bbbbbb;stroke-width:0.75;stroke-linecap:round;stroke-linejoin:round;stroke-miterlimit:10;stroke-dasharray:none;stroke-opacity:0.502"
       transform="matrix(1.3333333,0,0,-1.3333333,0,793.33333)"
       clip-path="url(#clipPath63)" />
    <path
       id="path64"
       d="M 376.49,64.8 V 580.88"
       style="fill:none;stroke:#bbbbbb;stroke-width:0.75;stroke-linecap:round;stroke-linejoin:round;stroke-miterlimit:10;stroke-dasharray:none;stroke-opacity:0.502"
       transform="matrix(1.3333333,0,0,-1.3333333,0,793.33333)"
       clip-path="url(#clipPath65)" />
    <path
       id="path66"
       d="M 422.94,64.8 V 580.88"
       style="fill:none;stroke:#bbbbbb;stroke-width:0.75;stroke-linecap:round;stroke-linejoin:round;stroke-miterlimit:10;stroke-dasharray:none;stroke-opacity:0.502"
       transform="matrix(1.3333333,0,0,-1.3333333,0,793.33333)"
       clip-path="url(#clipPath67)" />
    <path
       id="path68"
       d="M 469.39,64.8 V 580.88"
       style="fill:none;stroke:#bbbbbb;stroke-width:0.75;stroke-linecap:round;stroke-linejoin:round;stroke-miterlimit:10;stroke-dasharray:none;stroke-opacity:0.502"
       transform="matrix(1.3333333,0,0,-1.3333333,0,793.33333)"
       clip-path="url(#clipPath69)" />
    <path
       id="path70"
       d="M 515.84,64.8 V 580.88"
       style="fill:none;stroke:#bbbbbb;stroke-width:0.75;stroke-linecap:round;stroke-linejoin:round;stroke-miterlimit:10;stroke-dasharray:none;stroke-opacity:0.502"
       transform="matrix(1.3333333,0,0,-1.3333333,0,793.33333)"
       clip-path="url(#clipPath71)" />
    <path
       id="path72"
       d="M 562.3,64.8 V 580.88"
       style="fill:none;stroke:#bbbbbb;stroke-width:0.75;stroke-linecap:round;stroke-linejoin:round;stroke-miterlimit:10;stroke-dasharray:none;stroke-opacity:0.502"
       transform="matrix(1.3333333,0,0,-1.3333333,0,793.33333)"
       clip-path="url(#clipPath73)" />
    <path
       id="path74"
       d="M 79.2,90.58 H 580.88"
       style="fill:none;stroke:#bbbbbb;stroke-width:0.75;stroke-linecap:round;stroke-linejoin:round;stroke-miterlimit:10;stroke-dasharray:none;stroke-opacity:0.502"
       transform="matrix(1.3333333,0,0,-1.3333333,0,793.33333)"
       clip-path="url(#clipPath75)" />
    <path
       id="path76"
       d="M 79.2,137.03 H 580.88"
       style="fill:none;stroke:#bbbbbb;stroke-width:0.75;stroke-linecap:round;stroke-linejoin:round;stroke-miterlimit:10;stroke-dasharray:none;stroke-opacity:0.502"
       transform="matrix(1.3333333,0,0,-1.3333333,0,793.33333)"
       clip-path="url(#clipPath77)" />
    <path
       id="path78"
       d="M 79.2,183.48 H 580.88"
       style="fill:none;stroke:#bbbbbb;stroke-width:0.75;stroke-linecap:round;stroke-linejoin:round;stroke-miterlimit:10;stroke-dasharray:none;stroke-opacity:0.502"
       transform="matrix(1.3333333,0,0,-1.3333333,0,793.33333)"
       clip-path="url(#clipPath79)" />
    <path
       id="path80"
       d="M 79.2,229.93 H 580.88"
       style="fill:none;stroke:#bbbbbb;stroke-width:0.75;stroke-linecap:round;stroke-linejoin:round;stroke-miterlimit:10;stroke-dasharray:none;stroke-opacity:0.502"
       transform="matrix(1.3333333,0,0,-1.3333333,0,793.33333)"
       clip-path="url(#clipPath81)" />
    <path
       id="path82"
       d="M 79.2,276.39 H 580.88"
       style="fill:none;stroke:#bbbbbb;stroke-width:0.75;stroke-linecap:round;stroke-linejoin:round;stroke-miterlimit:10;stroke-dasharray:none;stroke-opacity:0.502"
       transform="matrix(1.3333333,0,0,-1.3333333,0,793.33333)"
       clip-path="url(#clipPath83)" />
    <path
       id="path84"
       d="M 79.2,322.84 H 580.88"
       style="fill:none;stroke:#bbbbbb;stroke-width:0.75;stroke-linecap:round;stroke-linejoin:round;stroke-miterlimit:10;stroke-dasharray:none;stroke-opacity:0.502"
       transform="matrix(1.3333333,0,0,-1.3333333,0,793.33333)"
       clip-path="url(#clipPath85)" />
    <path
       id="path86"
       d="M 79.2,369.29 H 580.88"
       style="fill:none;stroke:#bbbbbb;stroke-width:0.75;stroke-linecap:round;stroke-linejoin:round;stroke-miterlimit:10;stroke-dasharray:none;stroke-opacity:0.502"
       transform="matrix(1.3333333,0,0,-1.3333333,0,793.33333)"
       clip-path="url(#clipPath87)" />
    <path
       id="path88"
       d="M 79.2,415.74 H 580.88"
       style="fill:none;stroke:#bbbbbb;stroke-width:0.75;stroke-linecap:round;stroke-linejoin:round;stroke-miterlimit:10;stroke-dasharray:none;stroke-opacity:0.502"
       transform="matrix(1.3333333,0,0,-1.3333333,0,793.33333)"
       clip-path="url(#clipPath89)" />
    <path
       id="path90"
       d="M 79.2,462.19 H 580.88"
       style="fill:none;stroke:#bbbbbb;stroke-width:0.75;stroke-linecap:round;stroke-linejoin:round;stroke-miterlimit:10;stroke-dasharray:none;stroke-opacity:0.502"
       transform="matrix(1.3333333,0,0,-1.3333333,0,793.33333)"
       clip-path="url(#clipPath91)" />
    <path
       id="path92"
       d="M 79.2,508.64 H 580.88"
       style="fill:none;stroke:#bbbbbb;stroke-width:0.75;stroke-linecap:round;stroke-linejoin:round;stroke-miterlimit:10;stroke-dasharray:none;stroke-opacity:0.502"
       transform="matrix(1.3333333,0,0,-1.3333333,0,793.33333)"
       clip-path="url(#clipPath93)" />
    <path
       id="path94"
       d="M 79.2,555.1 H 580.88"
       style="fill:none;stroke:#bbbbbb;stroke-width:0.75;stroke-linecap:round;stroke-linejoin:round;stroke-miterlimit:10;stroke-dasharray:none;stroke-opacity:0.502"
       transform="matrix(1.3333333,0,0,-1.3333333,0,793.33333)"
       clip-path="url(#clipPath95)" />
    <path
       id="path96"
       d="m 97.78,91.28 1.82,-0.04 h 1.82 l 1.83,0.03 1.82,0.07 1.82,0.13 1.82,0.13 1.82,0.11 1.82,0.11 1.83,0.14 1.82,0.22 1.82,0.29 1.82,0.36 1.82,0.37 1.82,0.36 1.82,0.35 1.83,0.38 1.82,0.46 1.82,0.59 1.82,0.79 1.82,1.02 1.82,1.3 1.83,1.55 1.82,1.73 1.82,1.78 1.82,1.69 1.82,1.53 1.82,1.31 1.83,1.14 1.82,1.02 1.82,0.98 1.82,1.02 1.82,1.1 1.82,1.27 1.83,1.47 1.82,1.73 1.82,2.03 1.82,2.36 1.82,2.7 1.82,3.04 1.83,3.36 1.82,3.63 1.82,3.82 1.82,3.93 1.82,3.95 1.82,3.9 1.83,3.76 1.82,3.58 1.82,3.36 1.82,3.14 1.82,2.92 1.82,2.73 1.83,2.55 1.82,2.42 1.82,2.33 1.82,2.28 1.82,2.28 1.82,2.31 1.82,2.38 1.83,2.5 1.82,2.65 1.82,2.83 1.82,3.04 1.82,3.29 1.82,3.56 1.83,3.86 1.82,4.17 1.82,4.51 1.82,4.86 1.82,5.2 1.82,5.56 1.83,5.91 1.82,6.24 1.82,6.55 1.82,6.83 1.82,7.08 1.82,7.28 1.83,7.43 1.82,7.53 1.82,7.58 1.82,7.57 1.82,7.5 1.82,7.39 1.83,7.22 1.82,7.02 1.82,6.78 1.82,6.52 1.82,6.23 1.82,5.93 1.83,5.62 1.82,5.3 1.82,4.99 1.82,4.69 1.82,4.39 1.82,4.11 1.82,3.84 1.83,3.58 1.82,3.35 1.82,3.12 1.82,2.92 1.82,2.73 1.82,2.56 1.83,2.39 1.82,2.24 1.82,2.1 1.82,1.98 1.82,1.86 1.82,1.75 1.83,1.66 1.82,1.56 1.82,1.48 1.82,1.4 1.82,1.33 1.82,1.27 1.83,1.2 1.82,1.15 1.82,1.09 1.82,1.04 1.82,0.99 1.82,0.95 1.83,0.9 1.82,0.87 1.82,0.83 1.82,0.8 1.82,0.77 1.82,0.74 1.83,0.71 1.82,0.69 1.82,0.67 1.82,0.65 1.82,0.64 1.82,0.62 1.83,0.61 1.82,0.61 1.82,0.6 1.82,0.6 1.82,0.6 1.82,0.61 1.82,0.61 1.83,0.62 1.82,0.64 1.82,0.65 1.82,0.66 1.82,0.69 1.82,0.71 1.83,0.74 1.82,0.77 1.82,0.8 1.82,0.83 1.82,0.87 1.82,0.91 1.83,0.95 1.82,0.99 1.82,1.03 1.82,1.08 1.82,1.12 1.82,1.16 1.83,1.2 1.82,1.25 1.82,1.29 1.82,1.32 1.82,1.36 1.82,1.39 1.83,1.43 1.82,1.44 1.82,1.47 1.82,1.49 1.82,1.5 1.82,1.51 1.83,1.51 1.82,1.51 1.82,1.51 1.82,1.5 1.82,1.49 1.82,1.47 1.82,1.44 1.83,1.42 1.82,1.39 1.82,1.36 1.82,1.32 1.82,1.29 1.82,1.24 1.83,1.2 1.82,1.16 1.82,1.11 1.82,1.07 1.82,1.02 1.82,0.98 1.83,0.93 1.82,0.9 1.82,0.85 1.82,0.82 1.82,0.78 1.82,0.75 1.83,0.71 1.82,0.69 1.82,0.65 1.82,0.63 1.82,0.6 1.82,0.57 1.83,0.54 1.82,0.51 1.82,0.49 1.82,0.46 1.82,0.43 1.82,0.41 1.83,0.39 1.82,0.36 1.82,0.35 1.82,0.32 1.82,0.3 1.82,0.29 1.83,0.26 1.82,0.25 1.82,0.23 1.82,0.22 1.82,0.2 1.82,0.19 1.82,0.17 1.83,0.16 1.82,0.14 1.82,0.14 1.82,0.12 1.82,0.11 1.82,0.1 1.83,0.09 1.82,0.08 1.82,0.07 1.82,0.06 1.82,0.05 1.82,0.04 1.83,0.03 1.82,0.03 1.82,0.01 h 1.82 1.82 l 1.82,-0.02 1.83,-0.02 1.82,-0.04 1.82,-0.04 1.82,-0.05 1.82,-0.07 1.82,-0.07 1.83,-0.09 1.82,-0.09 1.82,-0.11 1.82,-0.12 1.82,-0.14 1.82,-0.14 1.83,-0.16 1.82,-0.18 1.82,-0.19 1.82,-0.2 1.82,-0.22 1.82,-0.23 1.83,-0.26"
       style="fill:none;stroke:#4477aa;stroke-width:2.25;stroke-linecap:round;stroke-linejoin:round;stroke-miterlimit:10;stroke-dasharray:none;stroke-opacity:1"
       transform="matrix(1.3333333,0,0,-1.3333333,0,793.33333)"
       clip-path="url(#clipPath97)" />
    <path
       id="path98"
       d="m 97.78,554.39 1.82,0.05 h 1.82 l 1.83,-0.03 1.82,-0.08 1.82,-0.12 1.82,-0.14 1.82,-0.11 1.82,-0.1 1.83,-0.15 1.82,-0.21 1.82,-0.3 1.82,-0.35 1.82,-0.38 1.82,-0.36 1.82,-0.35 1.83,-0.37 1.82,-0.46 1.82,-0.59 1.82,-0.79 1.82,-1.03 1.82,-1.3 1.83,-1.55 1.82,-1.72 1.82,-1.78 1.82,-1.7 1.82,-1.52 1.82,-1.32 1.83,-1.14 1.82,-1.02 1.82,-0.98 1.82,-1.01 1.82,-1.11 1.82,-1.26 1.83,-1.48 1.82,-1.73 1.82,-2.02 1.82,-2.36 1.82,-2.7 1.82,-3.05 1.83,-3.36 1.82,-3.62 1.82,-3.82 1.82,-3.93 1.82,-3.96 1.82,-3.89 1.83,-3.76 1.82,-3.58 1.82,-3.36 1.82,-3.14 1.82,-2.93 1.82,-2.72 1.83,-2.55 1.82,-2.43 1.82,-2.33 1.82,-2.28 1.82,-2.27 1.82,-2.31 1.82,-2.39 1.83,-2.5 1.82,-2.64 1.82,-2.83 1.82,-3.05 1.82,-3.29 1.82,-3.56 1.83,-3.85 1.82,-4.18 1.82,-4.51 1.82,-4.85 1.82,-5.21 1.82,-5.56 1.83,-5.91 1.82,-6.23 1.82,-6.55 1.82,-6.84 1.82,-7.07 1.82,-7.28 1.83,-7.43 1.82,-7.54 1.82,-7.57 1.82,-7.57 1.82,-7.5 1.82,-7.39 1.83,-7.23 1.82,-7.02 1.82,-6.78 1.82,-6.51 1.82,-6.23 1.82,-5.93 1.83,-5.62 1.82,-5.3 1.82,-5 1.82,-4.68 1.82,-4.39 1.82,-4.11 1.82,-3.84 1.83,-3.59 1.82,-3.34 1.82,-3.13 1.82,-2.92 1.82,-2.73 1.82,-2.55 1.83,-2.39 1.82,-2.24 1.82,-2.11 1.82,-1.97 1.82,-1.86 1.82,-1.76 1.83,-1.65 1.82,-1.57 1.82,-1.48 1.82,-1.4 1.82,-1.33 1.82,-1.26 1.83,-1.21 1.82,-1.14 1.82,-1.09 1.82,-1.04 1.82,-0.99 1.82,-0.95 1.83,-0.91 1.82,-0.87 1.82,-0.83 1.82,-0.8 1.82,-0.76 1.82,-0.74 1.83,-0.72 1.82,-0.69 1.82,-0.67 1.82,-0.65 1.82,-0.63 1.82,-0.63 1.83,-0.61 1.82,-0.6 1.82,-0.61 1.82,-0.6 1.82,-0.6 1.82,-0.6 1.82,-0.62 1.83,-0.62 1.82,-0.63 1.82,-0.65 1.82,-0.67 1.82,-0.69 1.82,-0.71 1.83,-0.74 1.82,-0.76 1.82,-0.8 1.82,-0.84 1.82,-0.86 1.82,-0.91 1.83,-0.95 1.82,-0.99 1.82,-1.03 1.82,-1.08 1.82,-1.12 1.82,-1.16 1.83,-1.21 1.82,-1.25 1.82,-1.28 1.82,-1.33 1.82,-1.36 1.82,-1.39 1.83,-1.42 1.82,-1.45 1.82,-1.47 1.82,-1.48 1.82,-1.5 1.82,-1.51 1.83,-1.51 1.82,-1.52 1.82,-1.51 1.82,-1.5 1.82,-1.48 1.82,-1.47 1.82,-1.45 1.83,-1.42 1.82,-1.39 1.82,-1.36 1.82,-1.32 1.82,-1.28 1.82,-1.25 1.83,-1.2 1.82,-1.15 1.82,-1.12 1.82,-1.06 1.82,-1.03 1.82,-0.97 1.83,-0.94 1.82,-0.89 1.82,-0.85 1.82,-0.82 1.82,-0.78 1.82,-0.75 1.83,-0.72 1.82,-0.68 1.82,-0.66 1.82,-0.62 1.82,-0.6 1.82,-0.57 1.83,-0.54 1.82,-0.51 1.82,-0.49 1.82,-0.46 1.82,-0.44 1.82,-0.41 1.83,-0.38 1.82,-0.37 1.82,-0.34 1.82,-0.32 1.82,-0.31 1.82,-0.28 1.83,-0.27 1.82,-0.24 1.82,-0.24 1.82,-0.21 1.82,-0.2 1.82,-0.19 1.82,-0.17 1.83,-0.16 1.82,-0.15 1.82,-0.13 1.82,-0.13 1.82,-0.11 1.82,-0.1 1.83,-0.09 1.82,-0.08 1.82,-0.07 1.82,-0.06 1.82,-0.05 1.82,-0.04 1.83,-0.03 1.82,-0.02 1.82,-0.01 1.82,-0.01 1.82,0.01 1.82,0.01 1.83,0.03 1.82,0.03 1.82,0.05 1.82,0.05 1.82,0.06 1.82,0.08 1.83,0.08 1.82,0.1 1.82,0.11 1.82,0.12 1.82,0.13 1.82,0.15 1.83,0.16 1.82,0.17 1.82,0.19 1.82,0.2 1.82,0.22 1.82,0.24 1.83,0.25"
       style="fill:none;stroke:#ee6677;stroke-width:2.25;stroke-linecap:round;stroke-linejoin:round;stroke-miterlimit:10;stroke-dasharray:6.75, 11.25;stroke-dashoffset:0;stroke-opacity:1"
       transform="matrix(1.3333333,0,0,-1.3333333,0,793.33333)"
       clip-path="url(#clipPath99)" />
    <path
       id="path100"
       d="m 230.11,556.72 h 32.4"
       style="fill:none;stroke:#4477aa;stroke-width:2.25;stroke-linecap:round;stroke-linejoin:round;stroke-miterlimit:10;stroke-dasharray:none;stroke-opacity:1"
       transform="matrix(1.3333333,0,0,-1.3333333,0,793.33333)"
       clip-path="url(#clipPath101)" />
    <path
       id="path102"
       d="m 230.11,535.12 h 32.4"
       style="fill:none;stroke:#ee6677;stroke-width:2.25;stroke-linecap:round;stroke-linejoin:round;stroke-miterlimit:10;stroke-dasharray:6.75, 11.25;stroke-dashoffset:0;stroke-opacity:1"
       transform="matrix(1.3333333,0,0,-1.3333333,0,793.33333)"
       clip-path="url(#clipPath103)" />
    <text
       xml:space="preserve"
       style="font-style:normal;font-variant:normal;font-weight:600;font-stretch:normal;font-size:24px;line-height:1;font-family:'Palatino LT Std';-inkscape-font-specification:'Palatino LT Std Semi-Bold';text-align:center;text-decoration-color:#000000;text-anchor:middle;opacity:1;fill:#000000;stroke:none;stroke-width:6.66667;stroke-linecap:round;stroke-opacity:0.75"
       x="440.51434"
       y="779.95886"
       id="text107"><tspan
         sodipodi:role="line"
         id="tspan107"
         x="440.51434"
         y="779.95886">output score</tspan></text>
    <text
       xml:space="preserve"
       style="font-style:normal;font-variant:normal;font-weight:600;font-stretch:normal;font-size:24px;line-height:1;font-family:'Palatino LT Std';-inkscape-font-specification:'Palatino LT Std Semi-Bold';text-align:center;text-decoration-color:#000000;text-anchor:middle;fill:#000000;stroke:none;stroke-width:6.66667;stroke-linecap:round;stroke-opacity:0.75"
       x="-363.32153"
       y="30.063583"
       id="text107-3"
       transform="rotate(-90)"><tspan
         sodipodi:role="line"
         id="tspan107-5"
         x="-363.32153"
         y="30.063583">class probability</tspan></text>
    <text
       xml:space="preserve"
       style="font-style:normal;font-variant:normal;font-weight:normal;font-stretch:normal;font-size:24px;line-height:1;font-family:'Palatino LT Std';-inkscape-font-specification:'Palatino LT Std';text-align:center;text-decoration-color:#000000;text-anchor:middle;fill:#000000;stroke:none;stroke-width:6.66667;stroke-linecap:round;stroke-opacity:0.75"
       x="411.25391"
       y="57.843597"
       id="text107-3-2"><tspan
         sodipodi:role="line"
         id="tspan107-5-7"
         x="411.25391"
         y="57.843597">class <tspan
   style="font-style:normal;font-variant:normal;font-weight:normal;font-stretch:normal;font-family:'DejaVu Sans Mono';-inkscape-font-specification:'DejaVu Sans Mono'"
   id="tspan109">yes</tspan></tspan></text>
    <text
       xml:space="preserve"
       style="font-style:normal;font-variant:normal;font-weight:normal;font-stretch:normal;font-size:24px;line-height:1;font-family:'Palatino LT Std';-inkscape-font-specification:'Palatino LT Std';text-align:center;text-decoration-color:#000000;text-anchor:middle;fill:#000000;stroke:none;stroke-width:6.66667;stroke-linecap:round;stroke-opacity:0.75"
       x="404.0293"
       y="86.643585"
       id="text107-3-2-0"><tspan
         sodipodi:role="line"
         id="tspan107-5-7-6"
         x="404.0293"
         y="86.643585">class <tspan
   style="font-style:normal;font-variant:normal;font-weight:normal;font-stretch:normal;font-family:'DejaVu Sans Mono';-inkscape-font-specification:'DejaVu Sans Mono'"
   id="tspan110">no</tspan></tspan></text>
  </g>
</svg>
