<?xml version="1.0" encoding="UTF-8" standalone="no"?>
<!-- Created with Inkscape (http://www.inkscape.org/) -->

<svg
   version="1.1"
   id="svg1"
   width="1121.3333"
   height="793.33331"
   viewBox="0 0 1121.3333 793.33331"
   sodipodi:docname="mismatch_freq_weight_NN.svg"
   inkscape:version="1.4.2 (1:1.4.2+202505120737+ebf0e940d0)"
   inkscape:export-filename="mismatch_freq_weight_NN.png"
   inkscape:export-xdpi="96"
   inkscape:export-ydpi="96"
   xmlns:inkscape="http://www.inkscape.org/namespaces/inkscape"
   xmlns:sodipodi="http://sodipodi.sourceforge.net/DTD/sodipodi-0.dtd"
   xmlns="http://www.w3.org/2000/svg"
   xmlns:svg="http://www.w3.org/2000/svg">
  <defs
     id="defs1">
    <clipPath
       clipPathUnits="userSpaceOnUse"
       id="clipPath59">
      <path
         d="M 82.8,64.8 H 827.49 V 580.88 H 82.8 Z"
         id="path59" />
    </clipPath>
    <clipPath
       clipPathUnits="userSpaceOnUse"
       id="clipPath61">
      <path
         d="M 82.8,64.8 H 827.49 V 580.88 H 82.8 Z"
         id="path61" />
    </clipPath>
    <clipPath
       clipPathUnits="userSpaceOnUse"
       id="clipPath63">
      <path
         d="M 82.8,64.8 H 827.49 V 580.88 H 82.8 Z"
         id="path63" />
    </clipPath>
    <clipPath
       clipPathUnits="userSpaceOnUse"
       id="clipPath65">
      <path
         d="M 82.8,64.8 H 827.49 V 580.88 H 82.8 Z"
         id="path65" />
    </clipPath>
    <clipPath
       clipPathUnits="userSpaceOnUse"
       id="clipPath67">
      <path
         d="M 82.8,64.8 H 827.49 V 580.88 H 82.8 Z"
         id="path67" />
    </clipPath>
    <clipPath
       clipPathUnits="userSpaceOnUse"
       id="clipPath69">
      <path
         d="M 82.8,64.8 H 827.49 V 580.88 H 82.8 Z"
         id="path69" />
    </clipPath>
    <clipPath
       clipPathUnits="userSpaceOnUse"
       id="clipPath71">
      <path
         d="M 82.8,64.8 H 827.49 V 580.88 H 82.8 Z"
         id="path71" />
    </clipPath>
    <clipPath
       clipPathUnits="userSpaceOnUse"
       id="clipPath73">
      <path
         d="M 82.8,64.8 H 827.49 V 580.88 H 82.8 Z"
         id="path73" />
    </clipPath>
    <clipPath
       clipPathUnits="userSpaceOnUse"
       id="clipPath75">
      <path
         d="M 82.8,64.8 H 827.49 V 580.88 H 82.8 Z"
         id="path75" />
    </clipPath>
    <clipPath
       clipPathUnits="userSpaceOnUse"
       id="clipPath77">
      <path
         d="M 82.8,64.8 H 827.49 V 580.88 H 82.8 Z"
         id="path77" />
    </clipPath>
    <clipPath
       clipPathUnits="userSpaceOnUse"
       id="clipPath79">
      <path
         d="M 82.8,64.8 H 827.49 V 580.88 H 82.8 Z"
         id="path79" />
    </clipPath>
    <clipPath
       clipPathUnits="userSpaceOnUse"
       id="clipPath81">
      <path
         d="M 82.8,64.8 H 827.49 V 580.88 H 82.8 Z"
         id="path81" />
    </clipPath>
    <clipPath
       clipPathUnits="userSpaceOnUse"
       id="clipPath83">
      <path
         d="M 82.8,64.8 H 827.49 V 580.88 H 82.8 Z"
         id="path83" />
    </clipPath>
    <clipPath
       clipPathUnits="userSpaceOnUse"
       id="clipPath85">
      <path
         d="M 82.8,64.8 H 827.49 V 580.88 H 82.8 Z"
         id="path85" />
    </clipPath>
    <clipPath
       clipPathUnits="userSpaceOnUse"
       id="clipPath87">
      <path
         d="M 82.8,64.8 H 827.49 V 580.88 H 82.8 Z"
         id="path87" />
    </clipPath>
    <clipPath
       clipPathUnits="userSpaceOnUse"
       id="clipPath89">
      <path
         d="M 82.8,64.8 H 827.49 V 580.88 H 82.8 Z"
         id="path89" />
    </clipPath>
    <clipPath
       clipPathUnits="userSpaceOnUse"
       id="clipPath91">
      <path
         d="M 82.8,64.8 H 827.49 V 580.88 H 82.8 Z"
         id="path91" />
    </clipPath>
    <clipPath
       clipPathUnits="userSpaceOnUse"
       id="clipPath93">
      <path
         d="M 82.8,64.8 H 827.49 V 580.88 H 82.8 Z"
         id="path93" />
    </clipPath>
    <clipPath
       clipPathUnits="userSpaceOnUse"
       id="clipPath95">
      <path
         d="M 82.8,64.8 H 827.49 V 580.88 H 82.8 Z"
         id="path95" />
    </clipPath>
    <clipPath
       clipPathUnits="userSpaceOnUse"
       id="clipPath97">
      <path
         d="M 82.8,64.8 H 827.49 V 580.88 H 82.8 Z"
         id="path97" />
    </clipPath>
    <clipPath
       clipPathUnits="userSpaceOnUse"
       id="clipPath99">
      <path
         d="M 82.8,64.8 H 827.49 V 580.88 H 82.8 Z"
         id="path99" />
    </clipPath>
    <clipPath
       clipPathUnits="userSpaceOnUse"
       id="clipPath101">
      <path
         d="M 82.8,64.8 H 827.49 V 580.88 H 82.8 Z"
         id="path101" />
    </clipPath>
    <clipPath
       clipPathUnits="userSpaceOnUse"
       id="clipPath103">
      <path
         d="M 82.8,64.8 H 827.49 V 580.88 H 82.8 Z"
         id="path103" />
    </clipPath>
    <clipPath
       clipPathUnits="userSpaceOnUse"
       id="clipPath105">
      <path
         d="M 82.8,64.8 H 827.49 V 580.88 H 82.8 Z"
         id="path105" />
    </clipPath>
    <clipPath
       clipPathUnits="userSpaceOnUse"
       id="clipPath107">
      <path
         d="M 82.8,64.8 H 827.49 V 580.88 H 82.8 Z"
         id="path107" />
    </clipPath>
    <clipPath
       clipPathUnits="userSpaceOnUse"
       id="clipPath109">
      <path
         d="M 82.8,64.8 H 827.49 V 580.88 H 82.8 Z"
         id="path109" />
    </clipPath>
    <clipPath
       clipPathUnits="userSpaceOnUse"
       id="clipPath111">
      <path
         d="M 82.8,64.8 H 827.49 V 580.88 H 82.8 Z"
         transform="matrix(1,0,0,-1,-723.67002,567.38001)"
         id="path111" />
    </clipPath>
  </defs>
  <sodipodi:namedview
     id="namedview1"
     pagecolor="#ffffff"
     bordercolor="#000000"
     borderopacity="0.25"
     inkscape:showpageshadow="2"
     inkscape:pageopacity="0.0"
     inkscape:pagecheckerboard="0"
     inkscape:deskcolor="#d1d1d1"
     inkscape:export-bgcolor="#ffffffff"
     inkscape:zoom="0.86504172"
     inkscape:cx="560.6666"
     inkscape:cy="397.66868"
     inkscape:window-width="1890"
     inkscape:window-height="1172"
     inkscape:window-x="0"
     inkscape:window-y="0"
     inkscape:window-maximized="1"
     inkscape:current-layer="g1">
    <inkscape:page
       x="0"
       y="0"
       inkscape:label="1"
       id="page1"
       width="1121.3333"
       height="793.33331"
       margin="0"
       bleed="0"
       inkscape:export-filename="mismatch_freq_weight_NN.png"
       inkscape:export-xdpi="150"
       inkscape:export-ydpi="150" />
  </sodipodi:namedview>
  <g
     id="g1"
     inkscape:groupmode="layer"
     inkscape:label="1">
    <path
       id="path1"
       d="M 141.72,64.8 V 57.6"
       style="fill:none;stroke:#bbbbbb;stroke-width:0.75;stroke-linecap:round;stroke-linejoin:round;stroke-miterlimit:10;stroke-dasharray:none;stroke-opacity:0.502"
       transform="matrix(1.3333333,0,0,-1.3333333,0,793.33333)" />
    <path
       id="path2"
       d="M 204.41,64.8 V 57.6"
       style="fill:none;stroke:#bbbbbb;stroke-width:0.75;stroke-linecap:round;stroke-linejoin:round;stroke-miterlimit:10;stroke-dasharray:none;stroke-opacity:0.502"
       transform="matrix(1.3333333,0,0,-1.3333333,0,793.33333)" />
    <path
       id="path3"
       d="M 267.09,64.8 V 57.6"
       style="fill:none;stroke:#bbbbbb;stroke-width:0.75;stroke-linecap:round;stroke-linejoin:round;stroke-miterlimit:10;stroke-dasharray:none;stroke-opacity:0.502"
       transform="matrix(1.3333333,0,0,-1.3333333,0,793.33333)" />
    <path
       id="path4"
       d="M 329.78,64.8 V 57.6"
       style="fill:none;stroke:#bbbbbb;stroke-width:0.75;stroke-linecap:round;stroke-linejoin:round;stroke-miterlimit:10;stroke-dasharray:none;stroke-opacity:0.502"
       transform="matrix(1.3333333,0,0,-1.3333333,0,793.33333)" />
    <path
       id="path5"
       d="M 392.46,64.8 V 57.6"
       style="fill:none;stroke:#bbbbbb;stroke-width:0.75;stroke-linecap:round;stroke-linejoin:round;stroke-miterlimit:10;stroke-dasharray:none;stroke-opacity:0.502"
       transform="matrix(1.3333333,0,0,-1.3333333,0,793.33333)" />
    <path
       id="path6"
       d="M 455.14,64.8 V 57.6"
       style="fill:none;stroke:#bbbbbb;stroke-width:0.75;stroke-linecap:round;stroke-linejoin:round;stroke-miterlimit:10;stroke-dasharray:none;stroke-opacity:0.502"
       transform="matrix(1.3333333,0,0,-1.3333333,0,793.33333)" />
    <path
       id="path7"
       d="M 517.83,64.8 V 57.6"
       style="fill:none;stroke:#bbbbbb;stroke-width:0.75;stroke-linecap:round;stroke-linejoin:round;stroke-miterlimit:10;stroke-dasharray:none;stroke-opacity:0.502"
       transform="matrix(1.3333333,0,0,-1.3333333,0,793.33333)" />
    <path
       id="path8"
       d="M 580.51,64.8 V 57.6"
       style="fill:none;stroke:#bbbbbb;stroke-width:0.75;stroke-linecap:round;stroke-linejoin:round;stroke-miterlimit:10;stroke-dasharray:none;stroke-opacity:0.502"
       transform="matrix(1.3333333,0,0,-1.3333333,0,793.33333)" />
    <path
       id="path9"
       d="M 643.2,64.8 V 57.6"
       style="fill:none;stroke:#bbbbbb;stroke-width:0.75;stroke-linecap:round;stroke-linejoin:round;stroke-miterlimit:10;stroke-dasharray:none;stroke-opacity:0.502"
       transform="matrix(1.3333333,0,0,-1.3333333,0,793.33333)" />
    <path
       id="path10"
       d="M 705.88,64.8 V 57.6"
       style="fill:none;stroke:#bbbbbb;stroke-width:0.75;stroke-linecap:round;stroke-linejoin:round;stroke-miterlimit:10;stroke-dasharray:none;stroke-opacity:0.502"
       transform="matrix(1.3333333,0,0,-1.3333333,0,793.33333)" />
    <path
       id="path11"
       d="M 768.57,64.8 V 57.6"
       style="fill:none;stroke:#bbbbbb;stroke-width:0.75;stroke-linecap:round;stroke-linejoin:round;stroke-miterlimit:10;stroke-dasharray:none;stroke-opacity:0.502"
       transform="matrix(1.3333333,0,0,-1.3333333,0,793.33333)" />
    <path
       id="path12"
       d="m 0.86574219,-5.2391406 v 1.0664062 H 9.6079297 V -5.2391406 Z M 12.115742,-9.9852344 h 0.175781 l 2.320313,-1.0546876 c 0.02344,-0.01172 0.03516,-0.01172 0.05859,-0.01172 0.105468,0 0.140625,0.164063 0.140625,0.597657 v 8.7304684 c 0,0.92578123 -0.199219,1.12499998 -1.171875,1.18359373 l -1.007813,0.0585938 v 0.5390625 c 1.570313,-0.03515625 2.578125,-0.058593755 2.976563,-0.058593755 0.234375,0 0.644531,0 1.242187,0.023437505 0.246094,0.01171875 0.738281,0.01171875 1.582031,0.03515625 v -0.5390625 l -0.9375,-0.0585938 c -0.972656,-0.0585938 -1.171875,-0.2578125 -1.171875,-1.18359373 V -12.399297 l -0.246093,-0.09375 c -1.207032,0.632813 -2.414063,1.136719 -4.089844,1.722656 z m 12.527344,-2.4140626 c -2.789063,0 -4.207031,2.214844 -4.207031,6.5625001 0,2.109375 0.375,3.9257813 1.007812,4.8046875 0.621094,0.89062503 1.628906,1.39453128 2.753906,1.39453128 2.71875,0 4.078125,-2.32031248 4.078125,-6.97265628 0,-3.9257816 -1.171875,-5.7890626 -3.632812,-5.7890626 z m -0.328125,0.621094 c 1.746094,0 2.449219,1.769531 2.449219,6.0937499 0,2.2148437 -0.199219,3.5390625 -0.679688,4.40625 -0.363281,0.66796873 -0.914062,1.00781248 -1.652344,1.00781248 -1.769531,0 -2.484375,-1.81640628 -2.484375,-6.21093748 0,-3.8203129 0.65625,-5.2968749 2.367188,-5.2968749 z m 0,0"
       style="fill:#000000;fill-opacity:1;fill-rule:nonzero;stroke:none"
       aria-label="−10"
       transform="matrix(1.3333333,0,0,1.3333333,169.69333,741.49333)" />
    <path
       id="path13"
       d="m 0.86640625,-5.2391406 v 1.0664062 H 9.6085938 V -5.2391406 Z M 13.932813,-6.2117969 c -0.738282,0.3398438 -1.042969,0.5390625 -1.441407,0.9140625 -0.679687,0.6914063 -1.042968,1.5 -1.042968,2.4375 0,1.87500003 1.476562,3.22265628 3.527343,3.22265628 2.355469,0 4.289063,-1.83984378 4.289063,-4.08984378 0,-1.4179687 -0.65625,-2.1914062 -2.71875,-3.1289062 1.640625,-1.1132813 2.214844,-1.875 2.214844,-2.953125 0,-1.5468749 -1.277344,-2.5898439 -3.1875,-2.5898439 -2.144532,0 -3.714844,1.359375 -3.714844,3.2578126 0,1.21875 0.46875,1.9101563 2.074219,2.9296875 z m 2.085937,0.9023438 c 1.160156,0.515625 1.816406,1.3828125 1.816406,2.3554687 0,1.5117188 -1.125,2.69531253 -2.589843,2.69531253 -1.523438,0 -2.519532,-1.05468753 -2.519532,-2.75390623 0,-1.3125 0.527344,-2.1328125 1.851563,-2.9414063 z m -1.089844,-2.3085938 c -1.136718,-0.5507812 -1.710937,-1.2773437 -1.710937,-2.1796875 0,-1.1953126 0.855469,-1.9921876 2.132812,-1.9921876 1.324219,0 2.179688,0.867188 2.179688,2.1796876 0,1.0195313 -0.445313,1.7226563 -1.617188,2.484375 z m 0,0"
       style="fill:#000000;fill-opacity:1;fill-rule:nonzero;stroke:none"
       aria-label="−8"
       transform="matrix(1.3333333,0,0,1.3333333,259.26667,741.49333)" />
    <path
       id="path14"
       d="m 0.86585938,-5.2391406 v 1.0664062 H 9.6080469 V -5.2391406 Z M 13.264297,-5.9539844 c 0.375,-3.2578125 1.886719,-5.0273436 5.132812,-5.9999996 v -0.140625 l -0.667968,-0.304688 c -1.722657,0.574219 -2.460938,0.9375 -3.386719,1.722656 -1.851563,1.5703129 -2.859375,3.7617191 -2.859375,6.2343754 0,2.9882812 1.417969,4.80468748 3.761719,4.80468748 2.34375,0 4.089843,-1.83984378 4.089843,-4.30078128 0,-2.0742187 -1.242187,-3.421875 -3.152343,-3.421875 -0.902344,0 -1.441407,0.234375 -2.496094,1.078125 z m 2.214844,-0.328125 c 1.40625,0 2.308593,1.171875 2.308593,2.9648438 0,1.875 -0.902343,3.08203123 -2.308593,3.08203123 -1.546875,0 -2.355469,-1.30078123 -2.355469,-3.72656253 0,-0.6445312 0.07031,-0.9726562 0.269531,-1.2773437 0.398438,-0.609375 1.242188,-1.0429688 2.085938,-1.0429688 z m 0,0"
       style="fill:#000000;fill-opacity:1;fill-rule:nonzero;stroke:none"
       aria-label="−6"
       transform="matrix(1.3333333,0,0,1.3333333,342.85333,741.49333)" />
    <path
       id="path15"
       d="m 0.86652344,-5.2391406 v 1.0664062 H 9.6087109 V -5.2391406 Z M 15.945625,-3.2586719 v 1.3476563 c -0.03516,1.11328123 -0.175781,1.31249998 -1.078125,1.37109373 l -1.113281,0.0585938 v 0.5390625 c 1.617187,-0.03515625 2.320312,-0.058593755 2.824219,-0.058593755 0.539062,0 1.253906,0.023437505 2.824218,0.058593755 v -0.5390625 l -0.867187,-0.0585938 C 17.633125,-0.61023437 17.4925,-0.79773437 17.457344,-1.9110156 v -1.3476563 c 1.066406,0 1.441406,0.023437 1.945312,0.070312 v -1.2773437 c -0.5625,0.058594 -0.902343,0.058594 -1.453125,0.058594 h -0.492187 v -2.5078125 c 0,-3.3632809 0.03516,-5.0156249 0.128906,-5.4843749 l -0.222656,-0.09375 -1.324219,0.480469 -5.097656,8.3437497 0.199219,0.4101562 z m 0,-1.1484375 h -3.867187 l 3.867187,-6.3398436 z m 0,0"
       style="fill:#000000;fill-opacity:1;fill-rule:nonzero;stroke:none"
       aria-label="−4"
       transform="matrix(1.3333333,0,0,1.3333333,426.42667,741.49333)" />
    <path
       id="path16"
       d="m 0.86597656,-5.2391406 v 1.0664062 H 9.6081641 V -5.2391406 Z M 11.201914,-0.41101562 v 0.46875 c 2.191406,-0.03515625 3.222656,-0.058593755 4.007813,-0.058593755 0.773437,0 1.839843,0.023437505 4.125,0.058593755 -0.03516,-0.36328125 -0.03516,-0.5390625 -0.03516,-0.8203125 0,-0.24609378 0,-0.42187498 0.03516,-0.80859378 -2.074219,0.09375 -2.894532,0.1171875 -6.234375,0.1875 l 3.28125,-3.4804687 c 1.746093,-1.8515625 2.285156,-2.8359375 2.285156,-4.1953125 0,-2.0624999 -1.40625,-3.3398439 -3.691406,-3.3398439 -1.289063,0 -2.15625,0.351563 -3.058594,1.253906 l -0.304688,2.4492191 h 0.515625 l 0.234375,-0.8320312 c 0.292969,-1.0429689 0.9375,-1.4882809 2.144532,-1.4882809 1.570312,0 2.542968,0.949218 2.542968,2.4960934 0,1.3710937 -0.761718,2.6835937 -2.789062,4.8515625 z m 0,0"
       style="fill:#000000;fill-opacity:1;fill-rule:nonzero;stroke:none"
       aria-label="−2"
       transform="matrix(1.3333333,0,0,1.3333333,510.01333,741.49333)" />
    <path
       id="path17"
       d="m 4.7330469,-12.399297 c -2.7890625,0 -4.20703127,2.214844 -4.20703127,6.5625001 0,2.109375 0.375,3.9257813 1.00781247,4.8046875 0.6210938,0.89062503 1.6289063,1.39453128 2.7539063,1.39453128 2.71875,0 4.078125,-2.32031248 4.078125,-6.97265628 0,-3.9257816 -1.171875,-5.7890626 -3.6328125,-5.7890626 z m -0.328125,0.621094 c 1.7460937,0 2.4492187,1.769531 2.4492187,6.0937499 0,2.2148437 -0.1992187,3.5390625 -0.6796875,4.40625 -0.3632812,0.66796873 -0.9140625,1.00781248 -1.6523437,1.00781248 -1.7695313,0 -2.484375,-1.81640628 -2.484375,-6.21093748 0,-3.8203129 0.65625,-5.2968749 2.3671875,-5.2968749 z m 0,0"
       style="fill:#000000;fill-opacity:1;fill-rule:nonzero;stroke:none"
       aria-label="0"
       transform="matrix(1.3333333,0,0,1.3333333,600.85333,741.49333)" />
    <path
       id="path18"
       d="m 0.29402344,-0.41101562 v 0.46875 C 2.4854297,0.02257813 3.5166797,-8.59375e-4 4.3018359,-8.59375e-4 c 0.7734375,0 1.8398438,0.023437505 4.125,0.058593755 -0.035156,-0.36328125 -0.035156,-0.5390625 -0.035156,-0.8203125 0,-0.24609378 0,-0.42187498 0.035156,-0.80859378 -2.0742187,0.09375 -2.8945312,0.1171875 -6.234375,0.1875 l 3.28125,-3.4804687 c 1.7460938,-1.8515625 2.2851563,-2.8359375 2.2851563,-4.1953125 0,-2.0624999 -1.40625,-3.3398439 -3.6914063,-3.3398439 -1.2890625,0 -2.15625,0.351563 -3.0585937,1.253906 L 0.70417969,-8.6961719 H 1.2198047 l 0.234375,-0.8320312 c 0.2929687,-1.0429689 0.9375,-1.4882809 2.1445312,-1.4882809 1.5703125,0 2.5429688,0.949218 2.5429688,2.4960934 0,1.3710937 -0.7617188,2.6835937 -2.7890625,4.8515625 z m 0,0"
       style="fill:#000000;fill-opacity:1;fill-rule:nonzero;stroke:none"
       aria-label="2"
       transform="matrix(1.3333333,0,0,1.3333333,684.44,741.49333)" />
    <path
       id="path19"
       d="m 5.0378516,-3.2586719 v 1.3476563 c -0.035156,1.11328123 -0.1757813,1.31249998 -1.078125,1.37109373 l -1.1132813,0.0585938 v 0.5390625 c 1.6171875,-0.0351563 2.3203125,-0.058593805 2.8242188,-0.058593805 0.5390625,0 1.2539062,0.023437505 2.8242187,0.058593755 v -0.5390625 L 7.6276953,-0.53992187 C 6.7253516,-0.61023437 6.5847266,-0.79773437 6.5495703,-1.9110156 v -1.3476563 c 1.0664063,0 1.4414063,0.023437 1.9453125,0.070312 v -1.2773437 c -0.5625,0.058594 -0.9023437,0.058594 -1.453125,0.058594 H 6.5495703 v -2.5078125 c 0,-3.3632809 0.035156,-5.0156249 0.1289063,-5.4843749 l -0.2226563,-0.09375 -1.3242187,0.480469 -5.09765629,8.3437497 0.19921875,0.4101562 z m 0,-1.1484375 H 1.1706641 l 3.8671875,-6.3398436 z m 0,0"
       style="fill:#000000;fill-opacity:1;fill-rule:nonzero;stroke:none"
       aria-label="4"
       transform="matrix(1.3333333,0,0,1.3333333,768.01333,741.49333)" />
    <path
       id="path20"
       d="m 2.3566406,-5.9539844 c 0.375,-3.2578125 1.8867188,-5.0273436 5.1328125,-5.9999996 v -0.140625 l -0.6679687,-0.304688 c -1.7226563,0.574219 -2.4609375,0.9375 -3.3867188,1.722656 -1.8515625,1.5703129 -2.85937498,3.7617191 -2.85937498,6.2343754 0,2.9882812 1.41796878,4.80468748 3.76171878,4.80468748 2.34375,0 4.0898437,-1.83984378 4.0898437,-4.30078128 0,-2.0742187 -1.2421875,-3.421875 -3.1523437,-3.421875 -0.9023438,0 -1.4414063,0.234375 -2.4960938,1.078125 z m 2.2148438,-0.328125 c 1.40625,0 2.3085937,1.171875 2.3085937,2.9648438 0,1.875 -0.9023437,3.08203123 -2.3085937,3.08203123 -1.546875,0 -2.3554688,-1.30078123 -2.3554688,-3.72656253 0,-0.6445312 0.070312,-0.9726562 0.2695313,-1.2773437 0.3984375,-0.609375 1.2421875,-1.0429688 2.0859375,-1.0429688 z m 0,0"
       style="fill:#000000;fill-opacity:1;fill-rule:nonzero;stroke:none"
       aria-label="6"
       transform="matrix(1.3333333,0,0,1.3333333,851.6,741.49333)" />
    <path
       id="path21"
       d="m 3.0223438,-6.2117969 c -0.7382813,0.3398438 -1.0429688,0.5390625 -1.4414063,0.9140625 -0.6796875,0.6914063 -1.04296875,1.5 -1.04296875,2.4375 0,1.87500003 1.47656255,3.22265628 3.52734375,3.22265628 2.3554688,0 4.2890625,-1.83984378 4.2890625,-4.08984378 0,-1.4179687 -0.65625,-2.1914062 -2.71875,-3.1289062 1.640625,-1.1132813 2.2148438,-1.875 2.2148438,-2.953125 0,-1.5468749 -1.2773438,-2.5898439 -3.1875,-2.5898439 -2.1445313,0 -3.7148438,1.359375 -3.7148438,3.2578126 0,1.21875 0.46875,1.9101563 2.0742188,2.9296875 z m 2.0859375,0.9023438 c 1.1601562,0.515625 1.8164062,1.3828125 1.8164062,2.3554687 0,1.5117188 -1.125,2.69531253 -2.5898437,2.69531253 -1.5234375,0 -2.5195313,-1.05468753 -2.5195313,-2.75390623 0,-1.3125 0.5273438,-2.1328125 1.8515625,-2.9414063 z M 4.0184375,-7.6180469 C 2.8817188,-8.1688281 2.3075,-8.8953906 2.3075,-9.7977344 c 0,-1.1953126 0.8554688,-1.9921876 2.1328125,-1.9921876 1.3242188,0 2.1796875,0.867188 2.1796875,2.1796876 0,1.0195313 -0.4453125,1.7226563 -1.6171875,2.484375 z m 0,0"
       style="fill:#000000;fill-opacity:1;fill-rule:nonzero;stroke:none"
       aria-label="8"
       transform="matrix(1.3333333,0,0,1.3333333,935.17333,741.49333)" />
    <path
       id="path22"
       d="m 1.2083203,-9.9852344 h 0.1757813 l 2.3203125,-1.0546876 c 0.023437,-0.01172 0.035156,-0.01172 0.058594,-0.01172 0.1054688,0 0.140625,0.164063 0.140625,0.597657 v 8.7304684 c 0,0.92578123 -0.1992187,1.12499998 -1.171875,1.18359373 l -1.0078125,0.0585938 v 0.5390625 c 1.5703125,-0.03515625 2.578125,-0.058593755 2.9765625,-0.058593755 0.234375,0 0.6445313,0 1.2421875,0.023437505 0.2460938,0.01171875 0.7382813,0.01171875 1.5820313,0.03515625 v -0.5390625 l -0.9375,-0.0585938 C 5.6145703,-0.59851562 5.4153516,-0.79773437 5.4153516,-1.7235156 V -12.399297 l -0.2460938,-0.09375 c -1.2070312,0.632813 -2.4140625,1.136719 -4.0898437,1.722656 z M 13.735664,-12.399297 c -2.789062,0 -4.2070312,2.214844 -4.2070312,6.5625001 0,2.109375 0.375,3.9257813 1.0078122,4.8046875 0.621094,0.89062503 1.628907,1.39453128 2.753907,1.39453128 2.71875,0 4.078125,-2.32031248 4.078125,-6.97265628 0,-3.9257816 -1.171875,-5.7890626 -3.632813,-5.7890626 z m -0.328125,0.621094 c 1.746094,0 2.449219,1.769531 2.449219,6.0937499 0,2.2148437 -0.199219,3.5390625 -0.679688,4.40625 -0.363281,0.66796873 -0.914062,1.00781248 -1.652343,1.00781248 -1.769532,0 -2.484375,-1.81640628 -2.484375,-6.21093748 0,-3.8203129 0.65625,-5.2968749 2.367187,-5.2968749 z m 0,0"
       style="fill:#000000;fill-opacity:1;fill-rule:nonzero;stroke:none"
       aria-label="10"
       transform="matrix(1.3333333,0,0,1.3333333,1012.76,741.49333)" />
    <path
       id="path23"
       d="M 82.8,83.91 H 75.6"
       style="fill:none;stroke:#bbbbbb;stroke-width:0.75;stroke-linecap:round;stroke-linejoin:round;stroke-miterlimit:10;stroke-dasharray:none;stroke-opacity:0.502"
       transform="matrix(1.3333333,0,0,-1.3333333,0,793.33333)" />
    <path
       id="path24"
       d="M 82.8,131.7 H 75.6"
       style="fill:none;stroke:#bbbbbb;stroke-width:0.75;stroke-linecap:round;stroke-linejoin:round;stroke-miterlimit:10;stroke-dasharray:none;stroke-opacity:0.502"
       transform="matrix(1.3333333,0,0,-1.3333333,0,793.33333)" />
    <path
       id="path25"
       d="M 82.8,179.48 H 75.6"
       style="fill:none;stroke:#bbbbbb;stroke-width:0.75;stroke-linecap:round;stroke-linejoin:round;stroke-miterlimit:10;stroke-dasharray:none;stroke-opacity:0.502"
       transform="matrix(1.3333333,0,0,-1.3333333,0,793.33333)" />
    <path
       id="path26"
       d="M 82.8,227.27 H 75.6"
       style="fill:none;stroke:#bbbbbb;stroke-width:0.75;stroke-linecap:round;stroke-linejoin:round;stroke-miterlimit:10;stroke-dasharray:none;stroke-opacity:0.502"
       transform="matrix(1.3333333,0,0,-1.3333333,0,793.33333)" />
    <path
       id="path27"
       d="M 82.8,275.05 H 75.6"
       style="fill:none;stroke:#bbbbbb;stroke-width:0.75;stroke-linecap:round;stroke-linejoin:round;stroke-miterlimit:10;stroke-dasharray:none;stroke-opacity:0.502"
       transform="matrix(1.3333333,0,0,-1.3333333,0,793.33333)" />
    <path
       id="path28"
       d="M 82.8,322.84 H 75.6"
       style="fill:none;stroke:#bbbbbb;stroke-width:0.75;stroke-linecap:round;stroke-linejoin:round;stroke-miterlimit:10;stroke-dasharray:none;stroke-opacity:0.502"
       transform="matrix(1.3333333,0,0,-1.3333333,0,793.33333)" />
    <path
       id="path29"
       d="M 82.8,370.62 H 75.6"
       style="fill:none;stroke:#bbbbbb;stroke-width:0.75;stroke-linecap:round;stroke-linejoin:round;stroke-miterlimit:10;stroke-dasharray:none;stroke-opacity:0.502"
       transform="matrix(1.3333333,0,0,-1.3333333,0,793.33333)" />
    <path
       id="path30"
       d="M 82.8,418.41 H 75.6"
       style="fill:none;stroke:#bbbbbb;stroke-width:0.75;stroke-linecap:round;stroke-linejoin:round;stroke-miterlimit:10;stroke-dasharray:none;stroke-opacity:0.502"
       transform="matrix(1.3333333,0,0,-1.3333333,0,793.33333)" />
    <path
       id="path31"
       d="M 82.8,466.19 H 75.6"
       style="fill:none;stroke:#bbbbbb;stroke-width:0.75;stroke-linecap:round;stroke-linejoin:round;stroke-miterlimit:10;stroke-dasharray:none;stroke-opacity:0.502"
       transform="matrix(1.3333333,0,0,-1.3333333,0,793.33333)" />
    <path
       id="path32"
       d="M 82.8,513.98 H 75.6"
       style="fill:none;stroke:#bbbbbb;stroke-width:0.75;stroke-linecap:round;stroke-linejoin:round;stroke-miterlimit:10;stroke-dasharray:none;stroke-opacity:0.502"
       transform="matrix(1.3333333,0,0,-1.3333333,0,793.33333)" />
    <path
       id="path33"
       d="M 82.8,561.76 H 75.6"
       style="fill:none;stroke:#bbbbbb;stroke-width:0.75;stroke-linecap:round;stroke-linejoin:round;stroke-miterlimit:10;stroke-dasharray:none;stroke-opacity:0.502"
       transform="matrix(1.3333333,0,0,-1.3333333,0,793.33333)" />
    <path
       id="path34"
       d="m 4.7337891,-12.398867 c -2.7890625,0 -4.20703129,2.214844 -4.20703129,6.5624998 0,2.109375 0.375,3.9257813 1.00781249,4.8046875 0.6210938,0.89062501 1.6289063,1.39453126 2.7539063,1.39453126 2.71875,0 4.078125,-2.32031246 4.078125,-6.97265626 0,-3.9257813 -1.171875,-5.7890623 -3.6328125,-5.7890623 z m -0.328125,0.621094 c 1.7460937,0 2.4492187,1.769531 2.4492187,6.0937496 0,2.2148437 -0.1992187,3.5390625 -0.6796875,4.40625 -0.3632812,0.66796871 -0.9140625,1.00781246 -1.6523437,1.00781246 -1.7695313,0 -2.484375,-1.81640626 -2.484375,-6.21093746 0,-3.8203126 0.65625,-5.2968746 2.3671875,-5.2968746 z m 6.8203129,9.7851558 c -0.539063,0 -1.019532,0.5039063 -1.019532,1.04296876 0,0.55078125 0.480469,1.04296875 1.007813,1.04296875 0.574219,0 1.078125,-0.4921875 1.078125,-1.04296875 0,-0.53906246 -0.503906,-1.04296876 -1.066406,-1.04296876 z m 7.007812,-10.4062498 c -2.789062,0 -4.207031,2.214844 -4.207031,6.5624998 0,2.109375 0.375,3.9257813 1.007812,4.8046875 0.621094,0.89062501 1.628907,1.39453126 2.753907,1.39453126 2.71875,0 4.078125,-2.32031246 4.078125,-6.97265626 0,-3.9257813 -1.171875,-5.7890623 -3.632813,-5.7890623 z m -0.328125,0.621094 c 1.746094,0 2.449219,1.769531 2.449219,6.0937496 0,2.2148437 -0.199219,3.5390625 -0.679688,4.40625 -0.363281,0.66796871 -0.914062,1.00781246 -1.652343,1.00781246 -1.769532,0 -2.484375,-1.81640626 -2.484375,-6.21093746 0,-3.8203126 0.65625,-5.2968746 2.367187,-5.2968746 z m 0,0"
       style="fill:#000000;fill-opacity:1;fill-rule:nonzero;stroke:none"
       aria-label="0.0"
       transform="matrix(1.3333333,0,0,1.3333333,61.2,689.74667)" />
    <path
       id="path35"
       d="m 4.7337891,-12.399141 c -2.7890625,0 -4.20703129,2.214844 -4.20703129,6.5625004 0,2.109375 0.375,3.9257812 1.00781249,4.8046875 0.6210938,0.89062498 1.6289063,1.39453123 2.7539063,1.39453123 2.71875,0 4.078125,-2.32031253 4.078125,-6.97265623 0,-3.9257809 -1.171875,-5.7890629 -3.6328125,-5.7890629 z m -0.328125,0.621094 c 1.7460937,0 2.4492187,1.769531 2.4492187,6.0937501 0,2.2148438 -0.1992187,3.5390625 -0.6796875,4.40625 -0.3632812,0.66796878 -0.9140625,1.00781253 -1.6523437,1.00781253 -1.7695313,0 -2.484375,-1.81640623 -2.484375,-6.21093753 0,-3.8203121 0.65625,-5.2968751 2.3671875,-5.2968751 z m 6.8203129,9.7851564 c -0.539063,0 -1.019532,0.5039062 -1.019532,1.04296873 0,0.55078125 0.480469,1.04296875 1.007813,1.04296875 0.574219,0 1.078125,-0.4921875 1.078125,-1.04296875 0,-0.53906253 -0.503906,-1.04296873 -1.066406,-1.04296873 z m 3.480468,-7.9921875 h 0.175782 l 2.320312,-1.0546879 c 0.02344,-0.01172 0.03516,-0.01172 0.05859,-0.01172 0.105469,0 0.140625,0.164062 0.140625,0.597656 v 8.7304686 c 0,0.92578128 -0.199219,1.12500003 -1.171875,1.18359378 l -1.007813,0.0585937 v 0.5390625 c 1.570313,-0.03515625 2.578125,-0.058593755 2.976563,-0.058593755 0.234375,0 0.644531,0 1.242187,0.023437505 0.246094,0.01171875 0.738282,0.01171875 1.582032,0.03515625 v -0.5390625 l -0.9375,-0.0585937 c -0.972657,-0.0585938 -1.171875,-0.2578125 -1.171875,-1.18359378 V -12.399141 l -0.246094,-0.09375 c -1.207031,0.632813 -2.414063,1.136719 -4.089844,1.722657 z m 0,0"
       style="fill:#000000;fill-opacity:1;fill-rule:nonzero;stroke:none"
       aria-label="0.1"
       transform="matrix(1.3333333,0,0,1.3333333,61.2,626.04)" />
    <path
       id="path36"
       d="m 4.7337891,-12.398203 c -2.7890625,0 -4.20703129,2.214844 -4.20703129,6.5624999 0,2.109375 0.375,3.9257812 1.00781249,4.8046875 0.6210938,0.89062498 1.6289063,1.39453123 2.7539063,1.39453123 2.71875,0 4.078125,-2.32031253 4.078125,-6.97265623 0,-3.9257814 -1.171875,-5.7890624 -3.6328125,-5.7890624 z m -0.328125,0.621094 c 1.7460937,0 2.4492187,1.769531 2.4492187,6.0937496 0,2.2148438 -0.1992187,3.5390625 -0.6796875,4.40625 -0.3632812,0.66796878 -0.9140625,1.00781253 -1.6523437,1.00781253 -1.7695313,0 -2.484375,-1.81640623 -2.484375,-6.21093753 0,-3.8203126 0.65625,-5.2968746 2.3671875,-5.2968746 z m 6.8203129,9.7851559 c -0.539063,0 -1.019532,0.5039062 -1.019532,1.04296873 0,0.55078125 0.480469,1.04296875 1.007813,1.04296875 0.574219,0 1.078125,-0.4921875 1.078125,-1.04296875 0,-0.53906253 -0.503906,-1.04296873 -1.066406,-1.04296873 z m 2.566406,1.58203123 v 0.46875 c 2.191406,-0.03515625 3.222656,-0.058593755 4.007812,-0.058593755 0.773438,0 1.839844,0.023437505 4.125,0.058593755 -0.03516,-0.36328125 -0.03516,-0.5390625 -0.03516,-0.8203125 0,-0.24609373 0,-0.42187503 0.03516,-0.80859373 -2.074218,0.09375 -2.894531,0.1171875 -6.234375,0.1875 l 3.28125,-3.4804688 c 1.746094,-1.8515625 2.285157,-2.8359375 2.285157,-4.1953125 0,-2.0624996 -1.40625,-3.3398436 -3.691407,-3.3398436 -1.289062,0 -2.15625,0.351562 -3.058593,1.253906 l -0.304688,2.4492189 h 0.515625 l 0.234375,-0.8320313 c 0.292969,-1.0429686 0.9375,-1.4882816 2.144531,-1.4882816 1.570313,0 2.542969,0.949219 2.542969,2.4960941 0,1.3710938 -0.761719,2.6835938 -2.789062,4.8515625 z m 0,0"
       style="fill:#000000;fill-opacity:1;fill-rule:nonzero;stroke:none"
       aria-label="0.2"
       transform="matrix(1.3333333,0,0,1.3333333,61.2,562.32)" />
    <path
       id="path37"
       d="m 4.7337891,-12.398477 c -2.7890625,0 -4.20703129,2.214844 -4.20703129,6.5625004 0,2.109375 0.375,3.9257813 1.00781249,4.8046875 0.6210938,0.89062504 1.6289063,1.39453129 2.7539063,1.39453129 2.71875,0 4.078125,-2.32031249 4.078125,-6.97265629 0,-3.9257809 -1.171875,-5.7890629 -3.6328125,-5.7890629 z m -0.328125,0.621094 c 1.7460937,0 2.4492187,1.769531 2.4492187,6.0937502 0,2.2148437 -0.1992187,3.5390625 -0.6796875,4.40625 -0.3632812,0.66796874 -0.9140625,1.00781249 -1.6523437,1.00781249 -1.7695313,0 -2.484375,-1.81640629 -2.484375,-6.21093749 0,-3.8203122 0.65625,-5.2968752 2.3671875,-5.2968752 z m 6.8203129,9.7851564 c -0.539063,0 -1.019532,0.5039063 -1.019532,1.04296879 0,0.55078125 0.480469,1.04296875 1.007813,1.04296875 0.574219,0 1.078125,-0.4921875 1.078125,-1.04296875 0,-0.53906249 -0.503906,-1.04296879 -1.066406,-1.04296879 z m 3.046875,-6.9726562 h 0.5625 l 0.316406,-1.0078125 c 0.199219,-0.6093747 1.335937,-1.2187497 2.285156,-1.2187497 1.160156,0 2.109375,0.925781 2.109375,2.0976559 0,1.3359375 -1.066406,2.4726563 -2.34375,2.4726563 -0.117187,0 -0.316406,-0.023437 -0.574219,-0.035156 -0.03516,0 -0.140625,0 -0.269531,-0.023437 l -0.210937,0.9609375 0.128906,0.1054688 c 0.679687,-0.3046875 1.007812,-0.3984375 1.511719,-0.3984375 1.488281,0 2.355468,0.9492187 2.355468,2.5898437 0,1.8398438 -1.101562,3.04687504 -2.777343,3.04687504 -0.84375,0 -1.582032,-0.26953125 -2.097657,-0.77343754 -0.457031,-0.421875 -0.667968,-0.8085937 -1.007812,-1.78125 l -0.492188,0.1757813 c 0.375,1.1015625 0.527344,1.7460937 0.632813,2.64843749 0.949219,0.31640625 1.722656,0.46875 2.414062,0.46875 1.441407,0 3.09375,-0.80859375 4.078125,-2.01562499 0.621094,-0.7382813 0.925782,-1.5351563 0.925782,-2.3789063 0,-0.8789062 -0.363282,-1.6171875 -1.007813,-2.0742187 -0.457031,-0.3164063 -0.890625,-0.46875 -1.769531,-0.6210938 1.441406,-1.125 1.980469,-1.9335937 1.980469,-3.0117187 0,-1.6054685 -1.335938,-2.6601565 -3.328125,-2.6601565 -1.230469,0 -2.050782,0.339844 -2.894532,1.207032 z m 0,0"
       style="fill:#000000;fill-opacity:1;fill-rule:nonzero;stroke:none"
       aria-label="0.3"
       transform="matrix(1.3333333,0,0,1.3333333,61.2,498.61333)" />
    <path
       id="path38"
       d="m 4.7337891,-12.397539 c -2.7890625,0 -4.20703129,2.214844 -4.20703129,6.5624999 0,2.109375 0.375,3.9257813 1.00781249,4.8046875 0.6210938,0.89062504 1.6289063,1.39453129 2.7539063,1.39453129 2.71875,0 4.078125,-2.32031249 4.078125,-6.97265629 0,-3.9257814 -1.171875,-5.7890624 -3.6328125,-5.7890624 z m -0.328125,0.621094 c 1.7460937,0 2.4492187,1.769531 2.4492187,6.0937497 0,2.2148437 -0.1992187,3.5390625 -0.6796875,4.40625 -0.3632812,0.66796874 -0.9140625,1.00781249 -1.6523437,1.00781249 -1.7695313,0 -2.484375,-1.81640629 -2.484375,-6.21093749 0,-3.8203127 0.65625,-5.2968747 2.3671875,-5.2968747 z m 6.8203129,9.7851559 c -0.539063,0 -1.019532,0.5039063 -1.019532,1.04296879 0,0.55078125 0.480469,1.04296875 1.007813,1.04296875 0.574219,0 1.078125,-0.4921875 1.078125,-1.04296875 0,-0.53906249 -0.503906,-1.04296879 -1.066406,-1.04296879 z m 7.3125,-1.265625 v 1.3476563 c -0.03516,1.11328124 -0.175782,1.31249999 -1.078125,1.37109374 l -1.113282,0.0585938 v 0.5390625 c 1.617188,-0.03515625 2.320313,-0.0585937525 2.824219,-0.0585937525 0.539063,0 1.253906,0.0234375025 2.824219,0.0585937525 v -0.5390625 l -0.867188,-0.0585938 c -0.902343,-0.0703125 -1.042968,-0.2578125 -1.078125,-1.37109374 v -1.3476563 c 1.066407,0 1.441407,0.023437 1.945313,0.070312 v -1.2773437 c -0.5625,0.058594 -0.902344,0.058594 -1.453125,0.058594 h -0.492188 v -2.5078125 c 0,-3.3632807 0.03516,-5.0156247 0.128907,-5.4843747 l -0.222657,-0.09375 -1.324218,0.480469 -5.097657,8.3437495 0.199219,0.4101562 z m 0,-1.1484375 h -3.867188 l 3.867188,-6.3398434 z m 0,0"
       style="fill:#000000;fill-opacity:1;fill-rule:nonzero;stroke:none"
       aria-label="0.4"
       transform="matrix(1.3333333,0,0,1.3333333,61.2,434.89333)" />
    <path
       id="path39"
       d="m 4.7337891,-12.397812 c -2.7890625,0 -4.20703129,2.214843 -4.20703129,6.5624995 0,2.109375 0.375,3.9257813 1.00781249,4.8046875 0.6210938,0.890625 1.6289063,1.39453125 2.7539063,1.39453125 2.71875,0 4.078125,-2.32031245 4.078125,-6.97265625 0,-3.925781 -1.171875,-5.789062 -3.6328125,-5.789062 z m -0.328125,0.621093 c 1.7460937,0 2.4492187,1.769532 2.4492187,6.0937503 0,2.2148437 -0.1992187,3.5390625 -0.6796875,4.40625 -0.3632812,0.6679687 -0.9140625,1.00781245 -1.6523437,1.00781245 -1.7695313,0 -2.484375,-1.81640625 -2.484375,-6.21093745 0,-3.8203123 0.65625,-5.2968753 2.3671875,-5.2968753 z m 6.8203129,9.7851565 c -0.539063,0 -1.019532,0.5039063 -1.019532,1.04296875 0,0.55078125 0.480469,1.04296875 1.007813,1.04296875 0.574219,0 1.078125,-0.4921875 1.078125,-1.04296875 0,-0.53906245 -0.503906,-1.04296875 -1.066406,-1.04296875 z m 4.558593,-8.8945315 c 2.285157,0.07031 3.28125,0.08203 5.496094,0.08203 l 0.08203,-0.08203 c -0.03516,-0.328125 -0.03516,-0.46875 -0.03516,-0.726562 0,-0.234375 0,-0.375 0.03516,-0.703125 l -0.08203,-0.08203 c -1.324219,0.07031 -2.109375,0.08203 -3.140625,0.08203 -1.019531,0 -1.816406,-0.01172 -3.128906,-0.08203 l -0.09375,0.08203 c 0.02344,1.101562 0.03516,1.933594 0.03516,2.5078123 0,1.5703125 -0.04687,3.2578125 -0.105469,4.0078125 l 0.363282,0.1171875 c 0.84375,-0.8671875 1.335937,-1.1015625 2.214843,-1.1015625 1.722657,0 2.800782,1.21875 2.800782,3.1640625 0,2.0039062 -1.148438,3.1757812 -3.105469,3.1757812 -0.996094,0 -1.875,-0.328125 -2.132813,-0.796875 l -0.820312,-1.4765625 -0.433594,0.2578125 c 0.410156,1.0195313 0.632813,1.59375 0.878906,2.390625 0.503907,0.28125 1.207032,0.43359375 2.003907,0.43359375 1.207031,0 2.484375,-0.52734375 3.492187,-1.39453125 1.078125,-0.9492187 1.652344,-2.1914062 1.652344,-3.5273437 0,-2.0273438 -1.453125,-3.46875 -3.503906,-3.46875 -0.867188,0 -1.523438,0.2109375 -2.636719,0.9023437 z m 0,0"
       style="fill:#000000;fill-opacity:1;fill-rule:nonzero;stroke:none"
       aria-label="0.5"
       transform="matrix(1.3333333,0,0,1.3333333,61.2,371.18667)" />
    <path
       id="path40"
       d="m 4.7337891,-12.398086 c -2.7890625,0 -4.20703129,2.214844 -4.20703129,6.5625001 0,2.109375 0.375,3.9257812 1.00781249,4.8046875 0.6210938,0.89062496 1.6289063,1.39453121 2.7539063,1.39453121 2.71875,0 4.078125,-2.32031251 4.078125,-6.97265621 0,-3.9257816 -1.171875,-5.7890626 -3.6328125,-5.7890626 z m -0.328125,0.621094 c 1.7460937,0 2.4492187,1.769531 2.4492187,6.0937498 0,2.2148438 -0.1992187,3.5390625 -0.6796875,4.40625 -0.3632812,0.66796876 -0.9140625,1.00781251 -1.6523437,1.00781251 -1.7695313,0 -2.484375,-1.81640621 -2.484375,-6.21093751 0,-3.8203128 0.65625,-5.2968748 2.3671875,-5.2968748 z m 6.8203129,9.7851561 c -0.539063,0 -1.019532,0.5039062 -1.019532,1.04296871 0,0.55078125 0.480469,1.04296875 1.007813,1.04296875 0.574219,0 1.078125,-0.4921875 1.078125,-1.04296875 0,-0.53906251 -0.503906,-1.04296871 -1.066406,-1.04296871 z m 4.628906,-3.9609375 c 0.375,-3.2578125 1.886719,-5.0273436 5.132812,-5.9999996 v -0.140625 l -0.667968,-0.304688 c -1.722657,0.574219 -2.460938,0.9375 -3.386719,1.722656 -1.851563,1.5703128 -2.859375,3.7617191 -2.859375,6.2343753 0,2.9882813 1.417969,4.80468751 3.761719,4.80468751 2.34375,0 4.089843,-1.83984371 4.089843,-4.30078121 0,-2.0742188 -1.242187,-3.421875 -3.152343,-3.421875 -0.902344,0 -1.441407,0.234375 -2.496094,1.078125 z m 2.214844,-0.328125 c 1.40625,0 2.308593,1.171875 2.308593,2.9648437 0,1.875 -0.902343,3.08203126 -2.308593,3.08203126 -1.546875,0 -2.355469,-1.30078126 -2.355469,-3.72656246 0,-0.6445313 0.07031,-0.9726563 0.269531,-1.2773438 0.398438,-0.609375 1.242188,-1.0429687 2.085938,-1.0429687 z m 0,0"
       style="fill:#000000;fill-opacity:1;fill-rule:nonzero;stroke:none"
       aria-label="0.6"
       transform="matrix(1.3333333,0,0,1.3333333,61.2,307.48)" />
    <path
       id="path41"
       d="m 4.7337891,-12.397148 c -2.7890625,0 -4.20703129,2.214843 -4.20703129,6.5624996 0,2.109375 0.375,3.9257812 1.00781249,4.8046875 0.6210938,0.89062496 1.6289063,1.39453121 2.7539063,1.39453121 2.71875,0 4.078125,-2.32031251 4.078125,-6.97265621 0,-3.9257811 -1.171875,-5.7890621 -3.6328125,-5.7890621 z m -0.328125,0.621093 c 1.7460937,0 2.4492187,1.769532 2.4492187,6.0937503 0,2.2148438 -0.1992187,3.5390625 -0.6796875,4.40625 -0.3632812,0.66796876 -0.9140625,1.00781251 -1.6523437,1.00781251 -1.7695313,0 -2.484375,-1.81640621 -2.484375,-6.21093751 0,-3.8203123 0.65625,-5.2968753 2.3671875,-5.2968753 z m 6.8203129,9.7851566 c -0.539063,0 -1.019532,0.5039062 -1.019532,1.04296871 0,0.55078125 0.480469,1.04296875 1.007813,1.04296875 0.574219,0 1.078125,-0.4921875 1.078125,-1.04296875 0,-0.53906251 -0.503906,-1.04296871 -1.066406,-1.04296871 z m 3.28125,1.81640621 0.164062,0.234375 c 0.515625,-0.03515625 0.679688,-0.05859375 0.820313,-0.05859375 0.152343,0 0.316406,0.0234375 0.832031,0.05859375 0.761719,-1.96875001 1.640625,-3.84375001 2.824219,-6.00000001 l 3.292968,-5.9179688 v -0.539062 c -1.59375,0.07031 -2.601562,0.08203 -4.03125,0.08203 -1.359375,0 -2.226562,-0.01172 -3.9375,-0.08203 l -0.175781,0.08203 c 0.03516,1.125 0.04687,1.628906 0.04687,1.898437 0,0.269532 -0.01172,0.7382816 -0.04687,1.8281253 h 0.539063 l 0.117187,-1.0078125 c 0.152344,-1.1132808 0.257813,-1.2421878 1.101563,-1.2539058 h 4.804687 c -0.714844,1.4765621 -1.277344,2.5195308 -1.957031,3.6210933 z m 0,0"
       style="fill:#000000;fill-opacity:1;fill-rule:nonzero;stroke:none"
       aria-label="0.7"
       transform="matrix(1.3333333,0,0,1.3333333,61.2,243.76)" />
    <path
       id="path42"
       d="m 4.7337891,-12.397422 c -2.7890625,0 -4.20703129,2.214844 -4.20703129,6.5625001 0,2.109375 0.375,3.9257813 1.00781249,4.8046875 0.6210938,0.89062503 1.6289063,1.39453128 2.7539063,1.39453128 2.71875,0 4.078125,-2.32031248 4.078125,-6.97265628 0,-3.9257816 -1.171875,-5.7890626 -3.6328125,-5.7890626 z m -0.328125,0.621094 c 1.7460937,0 2.4492187,1.769531 2.4492187,6.0937499 0,2.2148437 -0.1992187,3.5390625 -0.6796875,4.40625 -0.3632812,0.66796873 -0.9140625,1.00781248 -1.6523437,1.00781248 -1.7695313,0 -2.484375,-1.81640628 -2.484375,-6.21093748 0,-3.8203129 0.65625,-5.2968749 2.3671875,-5.2968749 z m 6.8203129,9.7851561 c -0.539063,0 -1.019532,0.5039063 -1.019532,1.04296878 0,0.55078125 0.480469,1.04296875 1.007813,1.04296875 0.574219,0 1.078125,-0.4921875 1.078125,-1.04296875 0,-0.53906248 -0.503906,-1.04296878 -1.066406,-1.04296878 z m 5.296875,-4.21875 c -0.738282,0.3398438 -1.042969,0.5390625 -1.441407,0.9140625 -0.679687,0.6914063 -1.042968,1.5 -1.042968,2.4375 0,1.87500003 1.476562,3.22265628 3.527343,3.22265628 2.355469,0 4.289063,-1.83984378 4.289063,-4.08984378 0,-1.4179687 -0.65625,-2.1914062 -2.71875,-3.1289062 1.640625,-1.1132813 2.214844,-1.875 2.214844,-2.953125 0,-1.5468749 -1.277344,-2.5898439 -3.1875,-2.5898439 -2.144532,0 -3.714844,1.359375 -3.714844,3.2578126 0,1.21875 0.46875,1.9101563 2.074219,2.9296875 z m 2.085937,0.9023438 c 1.160156,0.515625 1.816406,1.3828125 1.816406,2.3554687 0,1.5117188 -1.125,2.69531253 -2.589843,2.69531253 -1.523438,0 -2.519532,-1.05468753 -2.519532,-2.75390623 0,-1.3125 0.527344,-2.1328125 1.851563,-2.9414063 z m -1.089844,-2.3085938 c -1.136718,-0.5507812 -1.710937,-1.2773437 -1.710937,-2.1796875 0,-1.1953126 0.855469,-1.9921876 2.132812,-1.9921876 1.324219,0 2.179688,0.867188 2.179688,2.1796876 0,1.0195313 -0.445313,1.7226563 -1.617188,2.484375 z m 0,0"
       style="fill:#000000;fill-opacity:1;fill-rule:nonzero;stroke:none"
       aria-label="0.8"
       transform="matrix(1.3333333,0,0,1.3333333,61.2,180.05333)" />
    <path
       id="path43"
       d="m 4.7337891,-12.399414 c -2.7890625,0 -4.20703129,2.214844 -4.20703129,6.5624999 0,2.109375 0.375,3.9257813 1.00781249,4.8046875 0.6210938,0.89062504 1.6289063,1.39453129 2.7539063,1.39453129 2.71875,0 4.078125,-2.32031249 4.078125,-6.97265629 0,-3.9257814 -1.171875,-5.7890624 -3.6328125,-5.7890624 z m -0.328125,0.621094 c 1.7460937,0 2.4492187,1.769531 2.4492187,6.0937497 0,2.2148437 -0.1992187,3.5390625 -0.6796875,4.40625 -0.3632812,0.66796874 -0.9140625,1.00781249 -1.6523437,1.00781249 -1.7695313,0 -2.484375,-1.81640629 -2.484375,-6.21093749 0,-3.8203127 0.65625,-5.2968747 2.3671875,-5.2968747 z m 6.8203129,9.7851559 c -0.539063,0 -1.019532,0.5039063 -1.019532,1.04296879 0,0.55078125 0.480469,1.04296875 1.007813,1.04296875 0.574219,0 1.078125,-0.4921875 1.078125,-1.04296875 0,-0.53906249 -0.503906,-1.04296879 -1.066406,-1.04296879 z m 3.996093,2.35546879 c 2.003907,-0.65625 2.871094,-1.06640625 3.84375,-1.89843749 1.746094,-1.4882813 2.660157,-3.5625 2.660157,-5.9765625 0,-3.0351567 -1.453125,-4.8867187 -3.832032,-4.8867187 -2.308593,0 -4.03125,1.792969 -4.03125,4.2070312 0,2.0859375 1.347657,3.5859375 3.222657,3.5859375 0.609375,0 1.3125,-0.1992188 1.628906,-0.46875 l 1.265625,-1.0429688 c -0.140625,3.0234375 -2.109375,5.23828129 -5.367188,6.02343754 V 0.05761719 Z M 17.823633,-11.813477 c 0.808594,0 1.394531,0.351563 1.792969,1.066407 0.328125,0.574218 0.539062,1.4531247 0.539062,2.2499997 0,1.6757812 -0.9375,2.7890625 -2.332031,2.7890625 -1.441406,0 -2.414063,-1.2773438 -2.414063,-3.1523438 0,-1.8164064 0.914063,-2.9531254 2.414063,-2.9531254 z m 0,0"
       style="fill:#000000;fill-opacity:1;fill-rule:nonzero;stroke:none"
       aria-label="0.9"
       transform="matrix(1.3333333,0,0,1.3333333,61.2,116.33333)" />
    <path
       id="path44"
       d="m 1.2064453,-9.985625 h 0.1757813 l 2.3203125,-1.054687 c 0.023437,-0.01172 0.035156,-0.01172 0.058594,-0.01172 0.1054688,0 0.140625,0.164062 0.140625,0.597656 v 8.7304688 c 0,0.9257812 -0.1992187,1.12499995 -1.171875,1.1835937 L 1.7220706,-0.4817197 V 0.0573428 C 3.2923828,0.0221875 4.3001953,-0.00125 4.6986328,-0.00125 c 0.234375,0 0.6445313,0 1.2421875,0.0234375 0.2460938,0.01171875 0.7382813,0.01171875 1.5820313,0.03515625 v -0.5390625 l -0.9375,-0.0585938 C 5.6126953,-0.59890625 5.4134766,-0.798125 5.4134766,-1.7239062 V -12.399687 l -0.2460938,-0.09375 c -1.2070312,0.632812 -2.4140625,1.136718 -4.0898437,1.722656 z m 10.0195317,7.9921875 c -0.539063,0 -1.019532,0.5039063 -1.019532,1.04296875 0,0.55078125 0.480469,1.04296875 1.007813,1.04296875 0.574219,0 1.078125,-0.4921875 1.078125,-1.04296875 0,-0.53906245 -0.503906,-1.04296875 -1.066406,-1.04296875 z m 7.007812,-10.4062495 c -2.789062,0 -4.207031,2.214843 -4.207031,6.5624995 0,2.109375 0.375,3.9257813 1.007812,4.8046875 0.621094,0.890625 1.628907,1.39453125 2.753907,1.39453125 2.71875,0 4.078125,-2.32031245 4.078125,-6.97265625 0,-3.925781 -1.171875,-5.789062 -3.632813,-5.789062 z m -0.328125,0.621093 c 1.746094,0 2.449219,1.769532 2.449219,6.0937503 0,2.2148437 -0.199219,3.5390625 -0.679688,4.40625 -0.363281,0.6679687 -0.914062,1.00781245 -1.652343,1.00781245 -1.769532,0 -2.484375,-1.81640625 -2.484375,-6.21093745 0,-3.8203123 0.65625,-5.2968753 2.367187,-5.2968753 z m 0,0"
       style="fill:#000000;fill-opacity:1;fill-rule:nonzero;stroke:none"
       aria-label="1.0"
       transform="matrix(1.3333333,0,0,1.3333333,61.2,52.626667)" />
    <path
       id="path58"
       d="M 79.04,64.8 V 580.88"
       style="fill:none;stroke:#bbbbbb;stroke-width:0.75;stroke-linecap:round;stroke-linejoin:round;stroke-miterlimit:10;stroke-dasharray:none;stroke-opacity:0.502"
       transform="matrix(1.3333333,0,0,-1.3333333,0,793.33333)"
       clip-path="url(#clipPath59)" />
    <path
       id="path60"
       d="M 141.72,64.8 V 580.88"
       style="fill:none;stroke:#bbbbbb;stroke-width:0.75;stroke-linecap:round;stroke-linejoin:round;stroke-miterlimit:10;stroke-dasharray:none;stroke-opacity:0.502"
       transform="matrix(1.3333333,0,0,-1.3333333,0,793.33333)"
       clip-path="url(#clipPath61)" />
    <path
       id="path62"
       d="M 204.41,64.8 V 580.88"
       style="fill:none;stroke:#bbbbbb;stroke-width:0.75;stroke-linecap:round;stroke-linejoin:round;stroke-miterlimit:10;stroke-dasharray:none;stroke-opacity:0.502"
       transform="matrix(1.3333333,0,0,-1.3333333,0,793.33333)"
       clip-path="url(#clipPath63)" />
    <path
       id="path64"
       d="M 267.09,64.8 V 580.88"
       style="fill:none;stroke:#bbbbbb;stroke-width:0.75;stroke-linecap:round;stroke-linejoin:round;stroke-miterlimit:10;stroke-dasharray:none;stroke-opacity:0.502"
       transform="matrix(1.3333333,0,0,-1.3333333,0,793.33333)"
       clip-path="url(#clipPath65)" />
    <path
       id="path66"
       d="M 329.78,64.8 V 580.88"
       style="fill:none;stroke:#bbbbbb;stroke-width:0.75;stroke-linecap:round;stroke-linejoin:round;stroke-miterlimit:10;stroke-dasharray:none;stroke-opacity:0.502"
       transform="matrix(1.3333333,0,0,-1.3333333,0,793.33333)"
       clip-path="url(#clipPath67)" />
    <path
       id="path68"
       d="M 392.46,64.8 V 580.88"
       style="fill:none;stroke:#bbbbbb;stroke-width:0.75;stroke-linecap:round;stroke-linejoin:round;stroke-miterlimit:10;stroke-dasharray:none;stroke-opacity:0.502"
       transform="matrix(1.3333333,0,0,-1.3333333,0,793.33333)"
       clip-path="url(#clipPath69)" />
    <path
       id="path70"
       d="M 455.14,64.8 V 580.88"
       style="fill:none;stroke:#bbbbbb;stroke-width:0.75;stroke-linecap:round;stroke-linejoin:round;stroke-miterlimit:10;stroke-dasharray:none;stroke-opacity:0.502"
       transform="matrix(1.3333333,0,0,-1.3333333,0,793.33333)"
       clip-path="url(#clipPath71)" />
    <path
       id="path72"
       d="M 517.83,64.8 V 580.88"
       style="fill:none;stroke:#bbbbbb;stroke-width:0.75;stroke-linecap:round;stroke-linejoin:round;stroke-miterlimit:10;stroke-dasharray:none;stroke-opacity:0.502"
       transform="matrix(1.3333333,0,0,-1.3333333,0,793.33333)"
       clip-path="url(#clipPath73)" />
    <path
       id="path74"
       d="M 580.51,64.8 V 580.88"
       style="fill:none;stroke:#bbbbbb;stroke-width:0.75;stroke-linecap:round;stroke-linejoin:round;stroke-miterlimit:10;stroke-dasharray:none;stroke-opacity:0.502"
       transform="matrix(1.3333333,0,0,-1.3333333,0,793.33333)"
       clip-path="url(#clipPath75)" />
    <path
       id="path76"
       d="M 643.2,64.8 V 580.88"
       style="fill:none;stroke:#bbbbbb;stroke-width:0.75;stroke-linecap:round;stroke-linejoin:round;stroke-miterlimit:10;stroke-dasharray:none;stroke-opacity:0.502"
       transform="matrix(1.3333333,0,0,-1.3333333,0,793.33333)"
       clip-path="url(#clipPath77)" />
    <path
       id="path78"
       d="M 705.88,64.8 V 580.88"
       style="fill:none;stroke:#bbbbbb;stroke-width:0.75;stroke-linecap:round;stroke-linejoin:round;stroke-miterlimit:10;stroke-dasharray:none;stroke-opacity:0.502"
       transform="matrix(1.3333333,0,0,-1.3333333,0,793.33333)"
       clip-path="url(#clipPath79)" />
    <path
       id="path80"
       d="M 768.57,64.8 V 580.88"
       style="fill:none;stroke:#bbbbbb;stroke-width:0.75;stroke-linecap:round;stroke-linejoin:round;stroke-miterlimit:10;stroke-dasharray:none;stroke-opacity:0.502"
       transform="matrix(1.3333333,0,0,-1.3333333,0,793.33333)"
       clip-path="url(#clipPath81)" />
    <path
       id="path82"
       d="M 831.25,64.8 V 580.88"
       style="fill:none;stroke:#bbbbbb;stroke-width:0.75;stroke-linecap:round;stroke-linejoin:round;stroke-miterlimit:10;stroke-dasharray:none;stroke-opacity:0.502"
       transform="matrix(1.3333333,0,0,-1.3333333,0,793.33333)"
       clip-path="url(#clipPath83)" />
    <path
       id="path84"
       d="M 82.8,83.91 H 827.49"
       style="fill:none;stroke:#bbbbbb;stroke-width:0.75;stroke-linecap:round;stroke-linejoin:round;stroke-miterlimit:10;stroke-dasharray:none;stroke-opacity:0.502"
       transform="matrix(1.3333333,0,0,-1.3333333,0,793.33333)"
       clip-path="url(#clipPath85)" />
    <path
       id="path86"
       d="M 82.8,131.7 H 827.49"
       style="fill:none;stroke:#bbbbbb;stroke-width:0.75;stroke-linecap:round;stroke-linejoin:round;stroke-miterlimit:10;stroke-dasharray:none;stroke-opacity:0.502"
       transform="matrix(1.3333333,0,0,-1.3333333,0,793.33333)"
       clip-path="url(#clipPath87)" />
    <path
       id="path88"
       d="M 82.8,179.48 H 827.49"
       style="fill:none;stroke:#bbbbbb;stroke-width:0.75;stroke-linecap:round;stroke-linejoin:round;stroke-miterlimit:10;stroke-dasharray:none;stroke-opacity:0.502"
       transform="matrix(1.3333333,0,0,-1.3333333,0,793.33333)"
       clip-path="url(#clipPath89)" />
    <path
       id="path90"
       d="M 82.8,227.27 H 827.49"
       style="fill:none;stroke:#bbbbbb;stroke-width:0.75;stroke-linecap:round;stroke-linejoin:round;stroke-miterlimit:10;stroke-dasharray:none;stroke-opacity:0.502"
       transform="matrix(1.3333333,0,0,-1.3333333,0,793.33333)"
       clip-path="url(#clipPath91)" />
    <path
       id="path92"
       d="M 82.8,275.05 H 827.49"
       style="fill:none;stroke:#bbbbbb;stroke-width:0.75;stroke-linecap:round;stroke-linejoin:round;stroke-miterlimit:10;stroke-dasharray:none;stroke-opacity:0.502"
       transform="matrix(1.3333333,0,0,-1.3333333,0,793.33333)"
       clip-path="url(#clipPath93)" />
    <path
       id="path94"
       d="M 82.8,322.84 H 827.49"
       style="fill:none;stroke:#bbbbbb;stroke-width:0.75;stroke-linecap:round;stroke-linejoin:round;stroke-miterlimit:10;stroke-dasharray:none;stroke-opacity:0.502"
       transform="matrix(1.3333333,0,0,-1.3333333,0,793.33333)"
       clip-path="url(#clipPath95)" />
    <path
       id="path96"
       d="M 82.8,370.62 H 827.49"
       style="fill:none;stroke:#bbbbbb;stroke-width:0.75;stroke-linecap:round;stroke-linejoin:round;stroke-miterlimit:10;stroke-dasharray:none;stroke-opacity:0.502"
       transform="matrix(1.3333333,0,0,-1.3333333,0,793.33333)"
       clip-path="url(#clipPath97)" />
    <path
       id="path98"
       d="M 82.8,418.41 H 827.49"
       style="fill:none;stroke:#bbbbbb;stroke-width:0.75;stroke-linecap:round;stroke-linejoin:round;stroke-miterlimit:10;stroke-dasharray:none;stroke-opacity:0.502"
       transform="matrix(1.3333333,0,0,-1.3333333,0,793.33333)"
       clip-path="url(#clipPath99)" />
    <path
       id="path100"
       d="M 82.8,466.19 H 827.49"
       style="fill:none;stroke:#bbbbbb;stroke-width:0.75;stroke-linecap:round;stroke-linejoin:round;stroke-miterlimit:10;stroke-dasharray:none;stroke-opacity:0.502"
       transform="matrix(1.3333333,0,0,-1.3333333,0,793.33333)"
       clip-path="url(#clipPath101)" />
    <path
       id="path102"
       d="M 82.8,513.98 H 827.49"
       style="fill:none;stroke:#bbbbbb;stroke-width:0.75;stroke-linecap:round;stroke-linejoin:round;stroke-miterlimit:10;stroke-dasharray:none;stroke-opacity:0.502"
       transform="matrix(1.3333333,0,0,-1.3333333,0,793.33333)"
       clip-path="url(#clipPath103)" />
    <path
       id="path104"
       d="M 82.8,561.76 H 827.49"
       style="fill:none;stroke:#bbbbbb;stroke-width:0.75;stroke-linecap:round;stroke-linejoin:round;stroke-miterlimit:10;stroke-dasharray:none;stroke-opacity:0.502"
       transform="matrix(1.3333333,0,0,-1.3333333,0,793.33333)"
       clip-path="url(#clipPath105)" />
    <path
       id="path106"
       d="m 110.38,316.62 5.39,-1.24 5.38,-1.51 5.39,-2.21 5.39,-2.02 5.39,-2.62 5.38,-3.1 5.39,-3.43 5.39,-3.37 5.38,-3.5 5.39,-4.29 5.39,-3.91 5.38,-4.34 5.39,-5.45 5.39,-5.81 5.39,-5.82 5.38,-6.16 5.39,-5.59 5.39,-6.11 5.38,-7.42 5.39,-7.07 5.39,-7.66 5.38,-8.29 5.39,-7.69 5.39,-8.96 5.38,-9.3 5.39,-8.32 5.39,-8.98 5.39,-9.8 5.38,-9.83 5.39,-9.38 5.39,-8.31 5.38,-6.7 5.39,-5.59 5.39,-5.95 5.38,-7.13 5.39,-6.97 5.39,-4.77 5.38,-2.03 5.39,-0.68 5.39,-1.11 5.39,-1.77 5.38,-1.71 5.39,-1.2 5.39,-0.88 5.38,-0.6 5.39,-0.13 5.39,0.5 5.38,1.79 5.39,3.95 5.39,6.05 5.38,7.06 5.39,8.61 5.39,10.25 5.39,8.6 5.38,4.68 5.39,2.44 5.39,2.87 5.38,7.21 5.39,17.71 5.39,30.77 5.38,33.43 5.39,21.22 5.39,9.95 5.38,6.92 5.39,8.47 5.39,10.89 5.39,12.74 5.38,14.94 5.39,19.17 5.39,25.99 5.38,31.38 5.39,29.38 5.39,21.32 5.38,14.34 5.39,10.27 5.39,8.13 5.39,7.18 5.38,6.28 5.39,4.7 5.39,3.38 5.38,2.5 5.39,2.38 5.39,2.75 5.38,3.05 5.39,3.03 5.39,2.44 5.38,1.9 5.39,1.23 5.39,0.48 5.39,-0.49 5.38,-1.75 5.39,-3.56 5.39,-6.3 5.38,-8.98 5.39,-11.95 5.39,-15.27 5.38,-17.73 5.39,-18.8 5.39,-19.37 5.38,-17.82 5.39,-15.75 5.39,-13.08 5.39,-11.73 5.38,-9.53 5.39,-6.87 5.39,-4.92 5.38,-3.69 5.39,-2.31 5.39,-1.36 5.38,-1.38 5.39,-1.6 5.39,-1.14 5.38,-0.59 5.39,-0.78 5.39,0.29 5.39,1.17 5.38,0.38 5.39,-0.13 5.39,-0.12 h 5.38 l 5.39,0.11 5.39,0.44 5.38,0.47 5.39,0.68 5.39,0.17 5.38,-0.51 5.39,-0.37 5.39,0.56"
       style="fill:none;stroke:#4477aa;stroke-width:2.25;stroke-linecap:round;stroke-linejoin:round;stroke-miterlimit:10;stroke-dasharray:none;stroke-opacity:1"
       transform="matrix(1.3333333,0,0,-1.3333333,0,793.33333)"
       clip-path="url(#clipPath107)" />
    <path
       id="path108"
       d="m 110.38,83.91 h 5.39 5.38 5.39 5.39 5.39 5.38 5.39 5.39 5.38 5.39 5.39 5.38 5.39 5.39 5.39 5.38 5.39 5.39 5.38 5.39 5.39 5.38 5.39 5.39 5.38 5.39 l 5.39,0.01 h 5.39 5.38 5.39 5.39 5.38 l 5.39,0.01 h 5.39 l 5.38,0.01 5.39,0.01 5.39,0.01 5.38,0.02 5.39,0.02 5.39,0.04 5.39,0.05 5.38,0.07 5.39,0.1 5.39,0.15 5.38,0.2 5.39,0.28 5.39,0.4 5.38,0.57 5.39,0.79 5.39,1.12 5.38,1.56 5.39,2.18 5.39,3.05 5.39,4.24 5.38,5.84 5.39,7.99 5.39,10.8 5.38,14.38 5.39,18.75 5.39,23.79 5.38,29.16 5.39,34.29 5.39,38.37 5.38,40.67 5.39,40.66 5.39,38.38 5.39,34.28 5.38,29.17 5.39,23.78 5.39,18.75 5.38,14.38 5.39,10.81 5.39,7.99 5.38,5.84 5.39,4.23 5.39,3.05 5.39,2.19 5.38,1.56 5.39,1.11 5.39,0.8 5.38,0.56 5.39,0.4 5.39,0.29 5.38,0.2 5.39,0.14 5.39,0.1 5.38,0.08 5.39,0.05 5.39,0.03 5.39,0.03 5.38,0.02 5.39,0.01 5.39,0.01 5.38,0.01 h 5.39 5.39 l 5.38,0.01 h 5.39 5.39 5.38 5.39 5.39 5.39 5.38 5.39 5.39 5.38 5.39 5.39 5.38 5.39 5.39 5.38 5.39 5.39 5.39 5.38 5.39 5.39 5.38 5.39 5.39 5.38 5.39 5.39 5.38 5.39 5.39"
       style="fill:none;stroke:#bbbbbb;stroke-width:3;stroke-linecap:round;stroke-linejoin:round;stroke-miterlimit:10;stroke-dasharray:9, 15;stroke-dashoffset:0;stroke-opacity:1"
       transform="matrix(1.3333333,0,0,-1.3333333,0,793.33333)"
       clip-path="url(#clipPath109)" />
    <path
       id="path110"
       d="m 0.73917969,-2.5770312 c 0,1.2421875 -0.0585938,1.78124995 -0.19921875,2.50781245 C 1.4891797,0.23546875 2.1805859,0.364375 3.0126172,0.364375 c 2.3554687,0 4.03125,-1.2421875 4.03125,-3.0234375 0,-0.5742187 -0.1640625,-0.9726562 -0.5039063,-1.3359375 -0.46875,-0.4453125 -1.0546875,-0.6679687 -2.6484375,-0.9726562 -1.4765625,-0.2929688 -1.96875,-0.6445313 -1.96875,-1.4765625 0,-0.9023438 0.6210938,-1.40625 1.734375,-1.40625 1.21875,0 2.1210938,0.6328125 2.1210938,1.4765625 v 0.421875 h 0.5039062 c 0.023437,-1.0546875 0.035156,-1.4765625 0.09375,-2.0390625 -0.9726562,-0.328125 -1.5820312,-0.4453125 -2.34375,-0.4453125 -2.0859375,0 -3.36328121,0.984375 -3.36328121,2.6015625 0,0.890625 0.39843751,1.4648437 1.21875001,1.8632812 0.4921875,0.2109375 1.4414062,0.5039063 2.671875,0.7734375 0.8085937,0.1757813 1.1484375,0.5390625 1.1484375,1.2421875 0,0.97265625 -0.9023438,1.65234375 -2.1796875,1.65234375 -1.3125,0 -2.25,-0.6328125 -2.25,-1.53515625 V -2.5770312 Z M 12.660078,-8.4364062 c -2.636719,0 -4.4531249,1.8515625 -4.4531249,4.5351562 0,2.53125 1.5820313,4.265625 3.9257809,4.265625 2.777344,0 4.757813,-1.9335937 4.757813,-4.6289062 0,-2.4492188 -1.769531,-4.171875 -4.230469,-4.171875 z m -0.328125,0.5859375 c 1.675781,0 2.882813,1.8046875 2.882813,4.2539062 0,2.0859375 -0.902344,3.36328125 -2.378907,3.36328125 -1.769531,0 -2.9531246,-1.72265625 -2.9531246,-4.28906245 0,-2.15625 0.8671876,-3.328125 2.4492186,-3.328125 z M 23.599531,-12.90125 c -0.363281,-0.152344 -0.574219,-0.199219 -0.84375,-0.199219 -0.5625,0 -1.171875,0.28125 -1.59375,0.75 l -1.042969,1.195313 c -0.515625,0.585937 -0.738281,1.3242185 -0.75,2.5898435 v 0.75 l -1.242187,0.5625 v 0.3984375 l 1.242187,-0.070312 v 5.085937 c 0,1.171875 -0.05859,1.2421875 -0.667968,1.30078125 l -0.832032,0.0585938 v 0.5390625 c 1.265625,-0.03515625 1.78125,-0.05859375 2.25,-0.05859375 0.46875,0 0.996094,0.0234375 2.25,0.05859375 V -0.479375 L 21.54875,-0.53796875 C 20.915937,-0.60828125 20.8925,-0.6434375 20.880781,-1.83875 v -5.0859375 h 2.226563 L 23.23625,-7.885625 20.880781,-7.815313 V -9.33875 c 0,-2.085937 0.234375,-2.578125 1.253906,-2.578125 0.492188,0 0.808594,0.128906 1.242188,0.503906 l 0.222656,-0.105468 z m 1.623047,6.0234375 v 5.1914063 c 0,1.3242187 0.585938,1.89843745 1.96875,1.89843745 0.421875,0 0.855469,-0.0820313 0.960938,-0.2109375 L 29.019453,-0.948125 28.785078,-1.2645312 c -0.46875,0.28124995 -0.703125,0.35156245 -1.066406,0.35156245 -0.703125,0 -0.984375,-0.36328125 -0.984375,-1.24218745 v -4.7226563 h 2.296875 l 0.164062,-0.9726562 -2.460937,0.1171875 v -0.6914063 c 0,-0.7382812 0.04687,-1.5117187 0.1875,-2.5546875 l -0.210938,-0.199219 c -0.445312,0.269532 -0.972656,0.503907 -1.535156,0.691407 0.05859,0.5039058 0.08203,0.8554683 0.08203,1.4179683 v 1.2539062 L 23.851484,-7.1825 v 0.375 z m 4.391602,6.3984375 v 0.5390625 c 1.253906,-0.03515625 1.757812,-0.05859375 2.285156,-0.05859375 0.550781,0 1.042969,0.0234375 2.132812,0.05859375 V -0.479375 l -0.75,-0.0585938 C 32.649336,-0.5965625 32.61418,-0.666875 32.61418,-1.83875 v -3.8085937 c 0,-0.8085938 1.183593,-1.6992188 2.273437,-1.6992188 0.972656,0 1.628906,0.9257813 1.628906,2.2851563 V -1.83875 c 0,1.171875 -0.04687,1.2421875 -0.65625,1.30078125 l -0.832031,0.0585938 v 0.5390625 c 1.253906,-0.03515625 1.78125,-0.05859375 2.25,-0.05859375 0.46875,0 0.972656,0.0234375 2.25,0.05859375 V -0.479375 L 38.696211,-0.5379688 C 38.063398,-0.60828125 38.05168,-0.6434375 38.028242,-1.83875 v -3.8085937 c 0,-0.8085938 1.195313,-1.6992188 2.273438,-1.6992188 0.972656,0 1.640625,0.9257813 1.640625,2.2851563 v 5.1210937 c 0.808593,-0.03515625 1.113281,-0.05859375 1.417968,-0.05859375 0.269532,0 0.609375,0.0234375 1.605469,0.05859375 V -0.479375 l -0.84375,-0.0585938 C 43.48918,-0.60828125 43.465742,-0.6434375 43.454023,-1.83875 v -3.703125 c 0,-1.78125 -1.042968,-2.8945312 -2.707031,-2.8945312 -0.644531,0 -1.148437,0.140625 -1.476562,0.4453125 l -1.359375,1.21875 c -0.574219,-1.1953125 -1.300782,-1.6640625 -2.554688,-1.6640625 -0.667969,0 -1.171875,0.140625 -1.5,0.4453125 l -1.242187,1.1484375 v -1.5234375 l -0.164063,-0.070312 c -0.878906,0.375 -1.863281,0.6210937 -2.800781,0.7382812 v 0.5039063 h 0.65625 c 0.738281,0.011719 0.785156,0.082031 0.796875,1.3125 V -1.83875 c -0.01172,1.171875 -0.03516,1.2421875 -0.667969,1.30078125 z m 21.436523,-0.9960937 -0.09375,1.5351562 c 0.878906,-0.03515625 1.148438,-0.05859375 1.40625,-0.05859375 0.234375,0 0.339844,0 0.949219,0.03515625 l 0.375,0.0234375 V -0.479375 L 52.996016,-0.52625 c -0.46875,-0.046875 -0.492188,-0.10546875 -0.503907,-1.0429687 v -3.2929688 c 0,-2.625 -0.761718,-3.5742187 -2.847656,-3.5742187 -0.796875,0 -1.5,0.1992187 -2.179687,0.609375 l -0.949219,0.5742187 v 1.171875 l 0.46875,0.1289063 0.222656,-0.5625 c 0.386719,-0.84375 0.5625,-0.9726563 1.394531,-0.9726563 1.6875,0 2.390625,0.6679688 2.449219,2.3085938 l -1.78125,0.3164062 c -2.449219,0.4570313 -3.480469,1.3007813 -3.480469,2.8828125 0,1.3828125 0.832032,2.19140625 2.273438,2.19140625 0.339844,0 0.621094,-0.046875 0.75,-0.140625 z m 0,-0.75 C 50.523359,-1.4871875 49.386641,-0.8075 48.683516,-0.8075 c -0.738282,0 -1.347657,-0.6445312 -1.347657,-1.4414062 0,-0.6679688 0.363282,-1.3007813 0.890625,-1.640625 0.457032,-0.2695313 1.453125,-0.515625 2.824219,-0.7148438 z m 8.34375,-2.34375 2.554688,-2.9882813 c 0.117187,-0.1289062 0.292968,-0.1992187 0.621093,-0.1992187 h 0.246094 V -8.260625 h -1.476562 l -2.226563,3.1523438 -1.371094,-2.0859375 c -0.269531,-0.421875 -0.445312,-0.6210938 -1.078125,-1.2421875 l -2.085937,0.3515625 0.08203,0.46875 0.386719,0.035156 c 0.304687,0.023437 0.738281,0.2695313 0.890625,0.5273438 l 2.167969,3.1289062 -2.683594,3.1640625 c -0.128906,0.1640625 -0.363281,0.28125 -0.539063,0.28125 h -0.304687 v 0.48046875 h 1.546875 c 0.128906,-0.19921875 0.164062,-0.26953125 0.375,-0.59765625 0.292969,-0.5039062 0.574219,-0.9375 0.703125,-1.0898437 l 1.335937,-1.7695313 1.921875,2.91796875 c 0.175782,0.28125 0.304688,0.46875 0.46875,0.59765625 0.679688,-0.03515625 0.902344,-0.05859375 1.101563,-0.05859375 0.199219,0 0.421875,0.0234375 1.113281,0.05859375 V -0.479375 l -0.457031,-0.0585938 c -0.210938,-0.0234375 -0.421875,-0.1640625 -0.621094,-0.43359375 z m 0,0"
       style="fill:#000000;fill-opacity:1;fill-rule:nonzero;stroke:none"
       aria-label="softmax"
       transform="matrix(1.3333333,0,0,1.3333333,964.89333,36.826667)"
       clip-path="url(#clipPath111)" />
    <text
       xml:space="preserve"
       style="font-style:normal;font-variant:normal;font-weight:600;font-stretch:normal;font-size:24px;line-height:1;font-family:'Palatino LT Std';-inkscape-font-specification:'Palatino LT Std Semi-Bold';text-align:center;text-decoration-color:#000000;text-anchor:middle;fill:#000000;stroke:none;stroke-width:6.66667;stroke-linecap:round;stroke-opacity:0.75"
       x="606.85181"
       y="773.52002"
       id="text107"><tspan
         sodipodi:role="line"
         id="tspan107"
         x="606.85181"
         y="773.52002">output weight</tspan></text>
    <text
       xml:space="preserve"
       style="font-style:normal;font-variant:normal;font-weight:600;font-stretch:normal;font-size:24px;line-height:1;font-family:'Palatino LT Std';-inkscape-font-specification:'Palatino LT Std Semi-Bold';text-align:center;text-decoration-color:#000000;text-anchor:middle;fill:#000000;stroke:none;stroke-width:6.66667;stroke-linecap:round;stroke-opacity:0.75"
       x="-365.95184"
       y="34.988045"
       id="text107-3"
       transform="rotate(-90)"><tspan
         sodipodi:role="line"
         id="tspan107-5"
         x="-365.95184"
         y="34.988045">class probability</tspan></text>
  </g>
</svg>
